<svg xmlns="http://www.w3.org/2000/svg" xmlns:xlink="http://www.w3.org/1999/xlink" width="624.834" height="362.453" viewBox="0 0 624.834 362.453">
  <defs>
    <linearGradient id="linear-gradient" x1="0.5" y1="1" x2="0.5" gradientUnits="objectBoundingBox">
      <stop offset="0" stop-color="gray" stop-opacity="0.251"/>
      <stop offset="0.54" stop-color="gray" stop-opacity="0.122"/>
      <stop offset="1" stop-color="gray" stop-opacity="0.102"/>
    </linearGradient>
    <linearGradient id="linear-gradient-4" y2="-0.001" xlink:href="#linear-gradient"/>
    <linearGradient id="linear-gradient-7" y1="0.001" y2="1" xlink:href="#linear-gradient"/>
    <linearGradient id="linear-gradient-8" x1="-34.813" y1="30.815" x2="-34.813" y2="29.815" xlink:href="#linear-gradient"/>
    <linearGradient id="linear-gradient-9" x1="39.503" y1="-23.82" x2="39.503" y2="-22.82" xlink:href="#linear-gradient"/>
    <linearGradient id="linear-gradient-10" x1="30.785" y1="-18.69" x2="30.785" y2="-17.69" xlink:href="#linear-gradient"/>
    <linearGradient id="linear-gradient-11" x1="25.655" y1="-9.971" x2="25.655" y2="-8.972" xlink:href="#linear-gradient"/>
    <linearGradient id="linear-gradient-12" x1="25.656" y1="0.287" x2="25.656" y2="1.287" xlink:href="#linear-gradient"/>
    <linearGradient id="linear-gradient-13" x1="40.017" y1="14.391" x2="40.017" y2="15.391" xlink:href="#linear-gradient"/>
    <linearGradient id="linear-gradient-14" x1="50.274" y1="14.135" x2="50.274" y2="15.134" xlink:href="#linear-gradient"/>
    <linearGradient id="linear-gradient-15" x1="58.481" y1="9.006" x2="58.481" y2="10.006" xlink:href="#linear-gradient"/>
    <linearGradient id="linear-gradient-16" x1="63.609" y1="0.8" x2="63.609" y2="1.799" xlink:href="#linear-gradient"/>
  </defs>
  <g id="scheduling-image" transform="translate(-768.467)">
    <g id="Group_305" data-name="Group 305" transform="translate(768.467)">
      <path id="Path_323" data-name="Path 323" d="M251.33,0c154.3,0,279.382,77.944,279.382,174.092S404.835,302.531,251.33,311.125-36.661,390.917-32.993,277.98s-61.13-80.96-61.13-142.4C-94.123,39.433,97.031,0,251.33,0Z" transform="translate(94.123 0)" fill="#727b76" opacity="0.12"/>
      <g id="undraw_calendar_dutt" transform="translate(100.865 9.918)">
        <rect id="Rectangle_475" data-name="Rectangle 475" width="427.284" height="282.541" transform="translate(0 0)" fill="url(#linear-gradient)"/>
        <rect id="Rectangle_476" data-name="Rectangle 476" width="418.738" height="240.614" transform="translate(4.807 33.381)" fill="#fff"/>
        <path id="Path_319" data-name="Path 319" d="M418.738,0H0V27.506H418.738Z" transform="translate(4.807 5.875)" fill="#727b76"/>
        <rect id="Rectangle_478" data-name="Rectangle 478" width="408.056" height="209.903" transform="translate(9.614 50.74)" fill="url(#linear-gradient)"/>
        <path id="Path_328" data-name="Path 328" d="M49.138,0H0V39.257H49.138Z" transform="translate(363.458 54.479)" fill="#94474a" opacity="0.78"/>
        <rect id="Rectangle_480" data-name="Rectangle 480" width="49.138" height="39.257" transform="translate(313.787 54.479)" fill="#fff"/>
        <rect id="Rectangle_481" data-name="Rectangle 481" width="49.138" height="39.257" transform="translate(264.115 54.479)" fill="#94474a" opacity="0.2"/>
        <rect id="Rectangle_482" data-name="Rectangle 482" width="49.138" height="39.257" transform="translate(214.443 54.479)" fill="#fff"/>
        <rect id="Rectangle_483" data-name="Rectangle 483" width="49.138" height="39.257" transform="translate(164.771 54.479)" fill="#fff"/>
        <rect id="Rectangle_484" data-name="Rectangle 484" width="49.138" height="39.257" transform="translate(115.1 54.479)" fill="#94474a" opacity="0.5"/>
        <rect id="Rectangle_485" data-name="Rectangle 485" width="49.138" height="39.257" transform="translate(65.428 54.479)" fill="#fff"/>
        <rect id="Rectangle_486" data-name="Rectangle 486" width="49.138" height="39.257" transform="translate(15.756 54.479)" fill="#94474a" opacity="0.2"/>
        <rect id="Rectangle_487" data-name="Rectangle 487" width="49.138" height="39.257" transform="translate(363.458 94.536)" fill="#94474a" opacity="0.2"/>
        <rect id="Rectangle_488" data-name="Rectangle 488" width="49.138" height="39.257" transform="translate(313.787 94.536)" fill="#94474a" opacity="0.2"/>
        <rect id="Rectangle_489" data-name="Rectangle 489" width="49.138" height="39.257" transform="translate(264.115 94.536)" fill="#fff"/>
        <rect id="Rectangle_490" data-name="Rectangle 490" width="49.138" height="39.257" transform="translate(214.443 94.536)" fill="#94474a" opacity="0.77"/>
        <rect id="Rectangle_491" data-name="Rectangle 491" width="49.138" height="39.257" transform="translate(164.771 94.536)" fill="#fff"/>
        <rect id="Rectangle_492" data-name="Rectangle 492" width="49.138" height="39.257" transform="translate(115.1 94.536)" fill="#94474a" opacity="0.2"/>
        <rect id="Rectangle_493" data-name="Rectangle 493" width="49.138" height="39.257" transform="translate(65.428 94.536)" fill="#94474a" opacity="0.5"/>
        <rect id="Rectangle_494" data-name="Rectangle 494" width="49.138" height="39.257" transform="translate(15.756 94.536)" fill="#fff"/>
        <rect id="Rectangle_495" data-name="Rectangle 495" width="49.138" height="39.257" transform="translate(363.458 134.06)" fill="#fff"/>
        <rect id="Rectangle_496" data-name="Rectangle 496" width="49.138" height="39.257" transform="translate(313.787 134.06)" fill="#fff"/>
        <rect id="Rectangle_497" data-name="Rectangle 497" width="49.138" height="39.257" transform="translate(264.115 134.06)" fill="#94474a" opacity="0.2"/>
        <rect id="Rectangle_498" data-name="Rectangle 498" width="49.138" height="39.257" transform="translate(214.443 134.06)" fill="#fff"/>
        <rect id="Rectangle_499" data-name="Rectangle 499" width="49.138" height="39.257" transform="translate(164.771 134.06)" fill="#94474a" opacity="0.2"/>
        <rect id="Rectangle_500" data-name="Rectangle 500" width="49.138" height="39.257" transform="translate(115.1 134.06)" fill="#fff"/>
        <rect id="Rectangle_501" data-name="Rectangle 501" width="49.138" height="39.257" transform="translate(65.428 134.06)" fill="#fff"/>
        <rect id="Rectangle_502" data-name="Rectangle 502" width="49.138" height="39.257" transform="translate(15.756 134.06)" fill="#94474a" opacity="0.2"/>
        <rect id="Rectangle_503" data-name="Rectangle 503" width="49.138" height="39.257" transform="translate(363.458 173.584)" fill="#fff"/>
        <rect id="Rectangle_504" data-name="Rectangle 504" width="49.138" height="39.257" transform="translate(313.787 173.584)" fill="#6c63ff" opacity="0.5"/>
        <rect id="Rectangle_505" data-name="Rectangle 505" width="49.138" height="39.257" transform="translate(264.115 173.584)" fill="#94474a" opacity="0.5"/>
        <rect id="Rectangle_506" data-name="Rectangle 506" width="49.138" height="39.257" transform="translate(214.443 173.584)" fill="#fff"/>
        <rect id="Rectangle_507" data-name="Rectangle 507" width="49.138" height="39.257" transform="translate(164.771 173.584)" fill="#fff"/>
        <rect id="Rectangle_508" data-name="Rectangle 508" width="49.138" height="39.257" transform="translate(115.1 173.584)" fill="#94474a" opacity="0.5"/>
        <rect id="Rectangle_509" data-name="Rectangle 509" width="49.138" height="39.257" transform="translate(65.428 173.584)" fill="#fff"/>
        <path id="Path_326" data-name="Path 326" d="M49.138,0H0V39.257H49.138Z" transform="translate(15.756 173.584)" fill="#94474a" opacity="0.75"/>
        <rect id="Rectangle_511" data-name="Rectangle 511" width="49.138" height="39.257" transform="translate(363.458 213.642)" fill="#6c63ff" opacity="0.5"/>
        <rect id="Rectangle_512" data-name="Rectangle 512" width="49.138" height="39.257" transform="translate(313.787 213.642)" fill="#6c63ff" opacity="0.2"/>
        <rect id="Rectangle_513" data-name="Rectangle 513" width="49.138" height="39.257" transform="translate(264.115 213.642)" fill="#fff"/>
        <path id="Path_327" data-name="Path 327" d="M49.138,0H0V39.257H49.138Z" transform="translate(214.443 213.642)" fill="#94474a" opacity="0.75"/>
        <rect id="Rectangle_515" data-name="Rectangle 515" width="49.138" height="39.257" transform="translate(164.771 213.642)" fill="#94474a" opacity="0.2"/>
        <rect id="Rectangle_516" data-name="Rectangle 516" width="49.138" height="39.257" transform="translate(115.1 213.642)" fill="#fff"/>
        <rect id="Rectangle_517" data-name="Rectangle 517" width="49.138" height="39.257" transform="translate(65.428 213.642)" fill="#94474a" opacity="0.2"/>
        <rect id="Rectangle_518" data-name="Rectangle 518" width="49.138" height="39.257" transform="translate(15.756 213.642)" fill="#fff"/>
        <rect id="Rectangle_519" data-name="Rectangle 519" width="14.955" height="14.955" transform="translate(366.635 137.799)" fill="#8ea999"/>
        <rect id="Rectangle_520" data-name="Rectangle 520" width="14.955" height="14.955" transform="translate(217.154 58.751)" fill="#8ea999"/>
        <rect id="Rectangle_521" data-name="Rectangle 521" width="14.955" height="14.955" transform="translate(216.756 137.799)" fill="#8ea999"/>
        <rect id="Rectangle_522" data-name="Rectangle 522" width="14.955" height="14.955" transform="translate(168.016 175.72)" fill="#8ea999"/>
        <rect id="Rectangle_523" data-name="Rectangle 523" width="14.955" height="14.955" transform="translate(69.207 137.799)" fill="#8ea999"/>
        <ellipse id="Ellipse_28" data-name="Ellipse 28" cx="91.626" cy="91.626" rx="91.626" ry="91.626" transform="translate(263.052 169.284)" fill="url(#linear-gradient)"/>
        <path id="Path_322" data-name="Path 322" d="M89.153,0a89.153,89.153,0,1,0,89.153,89.153A89.153,89.153,0,0,0,89.153,0Z" transform="translate(265.525 171.757)" fill="#68726c"/>
        <ellipse id="Ellipse_30" data-name="Ellipse 30" cx="72.435" cy="72.435" rx="72.435" ry="72.435" transform="translate(282.242 188.475)" fill="#fff"/>
        <ellipse id="Ellipse_31" data-name="Ellipse 31" cx="4.332" cy="4.332" rx="4.332" ry="4.332" transform="translate(350.346 256.578)" fill="url(#linear-gradient-4)"/>
        <line id="Line_23" data-name="Line 23" x2="23.527" y2="55.718" transform="translate(330.531 205.192)" fill="#6c63ff"/>
        <path id="Path_316" data-name="Path 316" d="M193.645,439.649l2.671-.9L172.28,382.5l-2.671,1.255Z" transform="translate(159.399 -178.205)" fill="url(#linear-gradient)"/>
        <rect id="Rectangle_524" data-name="Rectangle 524" width="60.482" height="1.859" transform="translate(353.208 261.254) rotate(-112.89)" fill="#808c85"/>
        <line id="Line_24" data-name="Line 24" x1="15.478" y2="28.478" transform="translate(338.58 261.529)" fill="#6c63ff"/>
        <path id="Path_317" data-name="Path 317" d="M173.281,518.41l15.489-28.842-2.136-1.068L170.61,516.807Z" transform="translate(166.41 -227.59)" fill="url(#linear-gradient)"/>
        <rect id="Rectangle_525" data-name="Rectangle 525" width="1.859" height="32.415" transform="translate(339.405 290.471) rotate(-151.48)" fill="#808c85"/>
        <ellipse id="Ellipse_32" data-name="Ellipse 32" cx="1.859" cy="1.859" rx="1.859" ry="1.859" transform="translate(285.335 260.91)" fill="#6c63ff"/>
        <ellipse id="Ellipse_33" data-name="Ellipse 33" cx="2.414" cy="2.414" rx="2.414" ry="2.414" transform="translate(411.921 230.835) rotate(-120)" fill="#8ea999"/>
        <ellipse id="Ellipse_34" data-name="Ellipse 34" cx="2.414" cy="2.414" rx="2.414" ry="2.414" transform="translate(413.071 299.555) rotate(-150)" fill="url(#linear-gradient-7)"/>
        <ellipse id="Ellipse_35" data-name="Ellipse 35" cx="2.414" cy="2.414" rx="2.414" ry="2.414" transform="translate(419.742 260.354)" fill="url(#linear-gradient-8)"/>
        <ellipse id="Ellipse_36" data-name="Ellipse 36" cx="2.414" cy="2.414" rx="2.414" ry="2.414" transform="translate(389.053 206.073) rotate(-150)" fill="url(#linear-gradient-9)"/>
        <ellipse id="Ellipse_37" data-name="Ellipse 37" cx="2.414" cy="2.414" rx="2.414" ry="2.414" transform="translate(355.62 197.409) rotate(-150)" fill="url(#linear-gradient-10)"/>
        <ellipse id="Ellipse_38" data-name="Ellipse 38" cx="2.414" cy="2.414" rx="2.414" ry="2.414" transform="translate(322.189 206.076) rotate(-150)" fill="url(#linear-gradient-11)"/>
        <ellipse id="Ellipse_39" data-name="Ellipse 39" cx="2.414" cy="2.414" rx="2.414" ry="2.414" transform="translate(297.426 230.841) rotate(-150)" fill="url(#linear-gradient-12)"/>
        <ellipse id="Ellipse_40" data-name="Ellipse 40" cx="2.414" cy="2.414" rx="2.414" ry="2.414" transform="translate(298.042 299.561) rotate(-150)" fill="url(#linear-gradient-13)"/>
        <ellipse id="Ellipse_41" data-name="Ellipse 41" cx="2.414" cy="2.414" rx="2.414" ry="2.414" transform="translate(323.428 323.704) rotate(-150)" fill="url(#linear-gradient-14)"/>
        <ellipse id="Ellipse_42" data-name="Ellipse 42" cx="2.414" cy="2.414" rx="2.414" ry="2.414" transform="translate(355.623 331.137) rotate(-150)" fill="url(#linear-gradient-15)"/>
        <ellipse id="Ellipse_43" data-name="Ellipse 43" cx="2.414" cy="2.414" rx="2.414" ry="2.414" transform="translate(387.814 323.706) rotate(-150)" fill="url(#linear-gradient-16)"/>
        <ellipse id="Ellipse_44" data-name="Ellipse 44" cx="1.859" cy="1.859" rx="1.859" ry="1.859" transform="translate(352.819 192.187)" fill="#8ea999"/>
        <ellipse id="Ellipse_45" data-name="Ellipse 45" cx="1.859" cy="1.859" rx="1.859" ry="1.859" transform="translate(320.564 205.54) rotate(-120)" fill="#8ea999"/>
        <ellipse id="Ellipse_46" data-name="Ellipse 46" cx="1.859" cy="1.859" rx="1.859" ry="1.859" transform="translate(297.453 230.019) rotate(-150)" fill="#8ea999"/>
        <ellipse id="Ellipse_47" data-name="Ellipse 47" cx="1.859" cy="1.859" rx="1.859" ry="1.859" transform="translate(296.479 298.795) rotate(-120)" fill="#8ea999"/>
        <ellipse id="Ellipse_48" data-name="Ellipse 48" cx="1.859" cy="1.859" rx="1.859" ry="1.859" transform="translate(323.224 322.818) rotate(-150)" fill="#8ea999"/>
        <ellipse id="Ellipse_49" data-name="Ellipse 49" cx="1.859" cy="1.859" rx="1.859" ry="1.859" transform="translate(388.79 205.548) rotate(-150)" fill="#8ea999"/>
        <ellipse id="Ellipse_50" data-name="Ellipse 50" cx="1.859" cy="1.859" rx="1.859" ry="1.859" transform="translate(411.898 230.018) rotate(-120)" fill="#8ea999"/>
        <ellipse id="Ellipse_51" data-name="Ellipse 51" cx="2.414" cy="2.414" rx="2.414" ry="2.414" transform="translate(288.135 266.131) rotate(-150)" fill="#8ea999"/>
        <ellipse id="Ellipse_52" data-name="Ellipse 52" cx="1.859" cy="1.859" rx="1.859" ry="1.859" transform="translate(412.868 298.796) rotate(-150)" fill="#8ea999"/>
        <ellipse id="Ellipse_53" data-name="Ellipse 53" cx="1.859" cy="1.859" rx="1.859" ry="1.859" transform="translate(386.128 322.818) rotate(-120)" fill="#8ea999"/>
        <ellipse id="Ellipse_54" data-name="Ellipse 54" cx="1.859" cy="1.859" rx="1.859" ry="1.859" transform="translate(420.298 260.91)" fill="#8ea999"/>
        <ellipse id="Ellipse_55" data-name="Ellipse 55" cx="1.859" cy="1.859" rx="1.859" ry="1.859" transform="translate(352.819 325.91)" fill="#8ea999"/>
        <path id="Path_318" data-name="Path 318" d="M353.412,551.574a72.446,72.446,0,0,0-135.278-36.041,72.446,72.446,0,1,1,129.4,64.659A72.19,72.19,0,0,0,353.412,551.574Z" transform="translate(69.983 -283.854)" fill="#8ea999" opacity="0.2"/>
        <ellipse id="Ellipse_56" data-name="Ellipse 56" cx="3.098" cy="3.098" rx="3.098" ry="3.098" transform="translate(351.58 257.812)" fill="#4a524e"/>
      </g>
    </g>
  </g>
</svg>
