<svg xmlns="http://www.w3.org/2000/svg" xmlns:xlink="http://www.w3.org/1999/xlink" width="446.689" height="399.072" viewBox="0 0 446.689 399.072">
  <defs>
    <linearGradient id="linear-gradient" y1="0.5" x2="1" y2="0.5" gradientUnits="objectBoundingBox">
      <stop offset="0" stop-color="gray" stop-opacity="0.251"/>
      <stop offset="0.535" stop-color="gray" stop-opacity="0.122"/>
      <stop offset="1" stop-color="gray" stop-opacity="0.102"/>
    </linearGradient>
  </defs>
  <g id="security" transform="translate(-0.004)">
    <path id="Path_426" data-name="Path 426" d="M472.181,76.854,332,163.121S332,341.046,472.181,438.1c140.183-97.05,140.183-274.975,140.183-274.975Z" transform="translate(-247.95 -71.269)" fill="#94474a"/>
    <path id="Path_427" data-name="Path 427" d="M601.1,76.854l-2.4,1.475V436.413c.8.563,1.591,1.125,2.4,1.683,140.183-97.05,140.183-274.975,140.183-274.975Z" transform="translate(-376.028 -71.269)" fill="#9c7576" opacity="0.04"/>
    <g id="Group_535" data-name="Group 535" transform="translate(179.282 157.361)" opacity="0.7">
      <path id="Path_428" data-name="Path 428" d="M355.932,325.785l26.427,24.224,32.76-47.26,13.214,11.011-45.974,58.271L344.921,330.19Z" transform="translate(-344.921 -302.75)" fill="url(#linear-gradient)"/>
    </g>
    <path id="Path_429" data-name="Path 429" d="M378.017,349.62l41.031,37.611,58.127-85.481,20.516,17.1L419.048,421.424l-58.127-64.966Z" transform="translate(-204.635 -181.058)" fill="#56d57c"/>
    <path id="Path_430" data-name="Path 430" d="M329.69,110.8a1.91,1.91,0,0,1-1.064-2.308.916.916,0,0,0,.042-.212h0a.958.958,0,0,0-1.721-.635h0a.918.918,0,0,0-.106.188,1.91,1.91,0,0,1-2.308,1.064.918.918,0,0,0-.212-.042h0a.958.958,0,0,0-.635,1.721h0a.918.918,0,0,0,.188.106,1.91,1.91,0,0,1,1.064,2.308.918.918,0,0,0-.042.212h0a.958.958,0,0,0,1.721.635h0a.92.92,0,0,0,.106-.188,1.91,1.91,0,0,1,2.308-1.064.918.918,0,0,0,.212.042h0a.958.958,0,0,0,.635-1.721h0a.919.919,0,0,0-.188-.106Z" transform="translate(-243.775 -85.871)" fill="#4d8af0" opacity="0.5"/>
    <path id="Path_431" data-name="Path 431" d="M183.69,435.8a1.91,1.91,0,0,1-1.064-2.308.918.918,0,0,0,.042-.212h0a.958.958,0,0,0-1.721-.635h0a.919.919,0,0,0-.106.188,1.91,1.91,0,0,1-2.308,1.064.918.918,0,0,0-.212-.042h0a.958.958,0,0,0-.635,1.721h0a.917.917,0,0,0,.188.106,1.91,1.91,0,0,1,1.064,2.308.918.918,0,0,0-.042.212h0a.958.958,0,0,0,1.721.635h0a.918.918,0,0,0,.106-.188,1.91,1.91,0,0,1,2.308-1.064.918.918,0,0,0,.212.042h0a.958.958,0,0,0,.635-1.721h0a.919.919,0,0,0-.188-.106Z" transform="translate(-173.662 -241.945)" fill="#4d8af0" opacity="0.5"/>
    <circle id="Ellipse_89" data-name="Ellipse 89" cx="3.119" cy="3.119" r="3.119" transform="translate(385.88 128.903)" fill="#f55f44" opacity="0.5"/>
    <circle id="Ellipse_90" data-name="Ellipse 90" cx="3.119" cy="3.119" r="3.119" transform="translate(59.983 351.885)" fill="#f55f44" opacity="0.5"/>
    <circle id="Ellipse_91" data-name="Ellipse 91" cx="3.119" cy="3.119" r="3.119" transform="translate(438.897 248.97)" fill="#f55f44" opacity="0.5"/>
    <path id="Path_432" data-name="Path 432" d="M868.69,139.8a1.91,1.91,0,0,1-1.064-2.308.918.918,0,0,0,.042-.212h0a.958.958,0,0,0-1.721-.635h0a.919.919,0,0,0-.106.188,1.91,1.91,0,0,1-2.308,1.064.916.916,0,0,0-.212-.042h0a.958.958,0,0,0-.635,1.721h0a.919.919,0,0,0,.188.106,1.91,1.91,0,0,1,1.064,2.308.915.915,0,0,0-.042.212h0a.958.958,0,0,0,1.721.635h0a.917.917,0,0,0,.106-.188,1.91,1.91,0,0,1,2.308-1.064.918.918,0,0,0,.212.042h0a.958.958,0,0,0,.635-1.721h0A.915.915,0,0,0,868.69,139.8Z" transform="translate(-502.619 -99.797)" fill="#4d8af0" opacity="0.5"/>
    <path id="Path_433" data-name="Path 433" d="M968.69,767.8a1.91,1.91,0,0,1-1.064-2.308.92.92,0,0,0,.042-.212h0a.958.958,0,0,0-1.721-.635h0a.921.921,0,0,0-.106.188,1.91,1.91,0,0,1-2.308,1.064.921.921,0,0,0-.212-.042h0a.958.958,0,0,0-.635,1.721h0a.924.924,0,0,0,.188.106,1.91,1.91,0,0,1,1.064,2.308.918.918,0,0,0-.041.212h0a.958.958,0,0,0,1.721.635h0a.917.917,0,0,0,.106-.188,1.91,1.91,0,0,1,2.308-1.064.917.917,0,0,0,.212.042h0a.958.958,0,0,0,.635-1.721h0a.92.92,0,0,0-.188-.106Z" transform="translate(-550.642 -401.381)" fill="#4d8af0" opacity="0.5"/>
    <path id="Path_434" data-name="Path 434" d="M176.69,245.8a1.91,1.91,0,0,1-1.064-2.308.919.919,0,0,0,.042-.212h0a.958.958,0,0,0-1.721-.635h0a.918.918,0,0,0-.106.188,1.91,1.91,0,0,1-2.308,1.064.918.918,0,0,0-.212-.042h0a.958.958,0,0,0-.635,1.721h0a.918.918,0,0,0,.188.106,1.91,1.91,0,0,1,1.064,2.308.918.918,0,0,0-.042.212h0a.958.958,0,0,0,1.721.635h0a.918.918,0,0,0,.106-.188,1.91,1.91,0,0,1,2.308-1.064.918.918,0,0,0,.212.042h0a.958.958,0,0,0,.635-1.721h0A.917.917,0,0,0,176.69,245.8Z" transform="translate(-170.3 -150.702)" fill="#4d8af0" opacity="0.5"/>
    <circle id="Ellipse_92" data-name="Ellipse 92" cx="3.119" cy="3.119" r="3.119" transform="translate(38.153 144.496)" fill="#47e6b1" opacity="0.5"/>
    <circle id="Ellipse_93" data-name="Ellipse 93" cx="3.119" cy="3.119" r="3.119" transform="translate(440.456 169.445)" fill="#47e6b1" opacity="0.5"/>
    <g id="Group_536" data-name="Group 536" transform="translate(299.598)" opacity="0.5">
      <rect id="Rectangle_672" data-name="Rectangle 672" width="1.559" height="8.836" transform="translate(3.638)" fill="#47e6b1"/>
      <rect id="Rectangle_673" data-name="Rectangle 673" width="1.559" height="8.836" transform="translate(8.836 3.639) rotate(90)" fill="#47e6b1"/>
    </g>
    <g id="Group_537" data-name="Group 537" transform="translate(305.315 346.168)" opacity="0.5">
      <rect id="Rectangle_674" data-name="Rectangle 674" width="1.559" height="8.836" transform="translate(3.638)" fill="#47e6b1"/>
      <rect id="Rectangle_675" data-name="Rectangle 675" width="1.559" height="8.836" transform="translate(8.836 3.639) rotate(90)" fill="#47e6b1"/>
    </g>
    <g id="Group_538" data-name="Group 538" transform="translate(10.085 364.879)" opacity="0.5">
      <rect id="Rectangle_676" data-name="Rectangle 676" width="1.559" height="8.836" transform="translate(3.638)" fill="#47e6b1"/>
      <rect id="Rectangle_677" data-name="Rectangle 677" width="1.559" height="8.836" transform="translate(8.836 3.639) rotate(90)" fill="#47e6b1"/>
    </g>
    <g id="Group_539" data-name="Group 539" transform="translate(365.089 205.829)" opacity="0.5">
      <rect id="Rectangle_678" data-name="Rectangle 678" width="1.559" height="8.836" transform="translate(3.638)" fill="#47e6b1"/>
      <rect id="Rectangle_679" data-name="Rectangle 679" width="1.559" height="8.836" transform="translate(8.836 3.639) rotate(90)" fill="#47e6b1"/>
    </g>
    <path id="Path_435" data-name="Path 435" d="M794.317,119.408l3.349,3.07,4.745-6.977,1.675,1.4-6.419,8.373-4.745-5.3Z" transform="translate(-380.781 -55.466)" fill="#47e6b1" opacity="0.5"/>
    <rect id="Rectangle_680" data-name="Rectangle 680" width="11.561" height="14.864" transform="translate(306.379 124.814) rotate(-2.221)" fill="#9c7576"/>
    <path id="Path_436" data-name="Path 436" d="M667.163,402.014s-16-7.644-15.742-1.042,16.126,10.944,16.126,10.944Z" transform="translate(-401.345 -225.629)" fill="#ffb9b9"/>
    <path id="Path_437" data-name="Path 437" d="M685.149,504.757s-7.548,18.474-10.336,31.8-7.036,31.676-1.573,44.687,20.995,51.249,21.155,55.375-1.33,8.316,1.97,8.188,21.262-5.783,21.991-8.29-6.128-8.853-6.128-8.853l-16.933-53.059,17.667-34.567L725.7,591.609l2.5,64.362s12.249-3.781,14.028-.544c0,0,5.488-7.65,6.185-10.983s-2.592-66.838-2.592-66.838,11.244-72.333,2.167-71.981S703.359,484.217,685.149,504.757Z" transform="translate(-410.553 -272.517)" fill="#9c7576"/>
    <path id="Path_438" data-name="Path 438" d="M708.088,770.766s-8.373,18.505-9.166,19.363-6.249,9.333-2.123,9.173,13.868-4.67,21.038-11.559,16.624-18.825,15.767-19.619-6.729-3.045-6.729-3.045Z" transform="translate(-422.405 -401.774)" fill="#575a89"/>
    <path id="Path_439" data-name="Path 439" d="M781.611,794.4s-.505,8.284-2.027,11.648-1.33,8.316,2.8,8.156,14.789-2.226,14.789-2.226.633-4.983-.224-5.776-4.51-9.742-2.955-12.281S781.611,794.4,781.611,794.4Z" transform="translate(-462.474 -415.137)" fill="#575a89"/>
    <path id="Path_440" data-name="Path 440" d="M784.973,278.6s8.8,13.708,12.224,16.88-6.217,10.158-6.217,10.158l-17.264,2.322s.217-15.71-.672-17.328S784.973,278.6,784.973,278.6Z" transform="translate(-459.732 -168.153)" fill="#ffb9b9"/>
    <path id="Path_441" data-name="Path 441" d="M750.211,309.62s3.557,6.473,6.857,6.345,20.373-7.4,21.1-9.909,5.655,17.962,5.655,17.962L742.05,397.535l-10.19-7.042,4.937-43.164,4.055-23.3Z" transform="translate(-439.975 -181.236)" fill="#9c7576"/>
    <path id="Path_442" data-name="Path 442" d="M760.324,370.826a23.118,23.118,0,0,0-2.563,10.843c.006.165.013.33.027.495.4,7.637,3.209,16.47,4.218,22.893.732,4.608.524,7.971-2.172,8.761-6.537,1.906.953,3.269-24.339,11.687s-29.706,1.152-29.77-.5,3.582-14.188,2.725-14.981-11.993,10.382-15.358,8.86-.384-9.9-.384-9.9,7.58-17.648,7.42-21.774,11.481-23.584,11.481-23.584l7.918-51.544s3.045-6.729,7.138-7.714a10.141,10.141,0,0,1,7.49,1.362l-6.85,15.141-7.228,26.725,1.209,9.87s8.4-17.68,13.925-24.506,17.29-22.983,17.29-22.983,2.748-9.271.673-12.042,8.653-3.195,13.226,8.2c2.424,6.038,6.36,15.042,8.825,23.425,2.2,7.427,3.235,14.37,1.058,18.338C772.959,353.957,764.59,361.925,760.324,370.826Z" transform="translate(-420.589 -176.648)" fill="#575a89"/>
    <path id="Path_443" data-name="Path 443" d="M836.813,376.735c-3.327,6.063-11.695,14.031-15.961,22.932-1.114-4.014-2.474-8.168-2.474-8.168s-5.214-27.9,10.208-35.1a10.322,10.322,0,0,1,7.168,2C837.952,365.824,838.99,372.767,836.813,376.735Z" transform="translate(-481.116 -205.489)" opacity="0.1"/>
    <path id="Path_444" data-name="Path 444" d="M706.265,392.191,693.191,396l-18.154.7-1.868,15.774L703,414.63S710.455,393.681,706.265,392.191Z" transform="translate(-411.79 -222.702)" fill="#575a89"/>
    <path id="Path_445" data-name="Path 445" d="M764.842,494.231s-17.491,2.9-13.5,8.165,19.487-.27,19.487-.27Z" transform="translate(-449.047 -271.705)" fill="#ffb9b9"/>
    <path id="Path_446" data-name="Path 446" d="M795.273,461.5c.4,7.637,3.209,16.47,4.218,22.893-5.572,5.274-10.871,9.925-12.868,10-4.126.16-10.759-.409-13.2.512s-3.877-14.725-3.877-14.725,1.458-5.015,7.963-7.746A90.6,90.6,0,0,0,795.273,461.5Z" transform="translate(-458.072 -255.989)" opacity="0.1"/>
    <path id="Path_447" data-name="Path 447" d="M805.173,346.862s13.964-2.194,13.209,20.974,1.472,37.957-4.144,42.307-23.859,24.064-27.985,24.224-10.759-.409-13.2.512-3.877-14.725-3.877-14.725,1.458-5.015,7.964-7.746,21.831-12.416,21.7-15.717-3.877-14.725-3.877-14.725S789.751,354.071,805.173,346.862Z" transform="translate(-457.895 -200.907)" fill="#575a89"/>
    <circle id="Ellipse_94" data-name="Ellipse 94" cx="18.167" cy="18.167" r="18.167" transform="translate(294.761 94.411)" fill="#ffb9b9"/>
    <path id="Path_448" data-name="Path 448" d="M739.877,229.212a3.508,3.508,0,0,1-1.528.767,1.09,1.09,0,0,1-1.263-.875,4.529,4.529,0,0,1-1.733,2.223c-.849.442-2.161.071-2.283-.878a4.006,4.006,0,0,1-.922,1.946,1.381,1.381,0,0,1-1.941.065,49.882,49.882,0,0,1,.259,6.181c.117,2.061.666,4.247,2.224,5.6,2.271,1.977,5.687,1.489,8.675,1.114a2.633,2.633,0,0,1,1.359.074c1.119.477,1.068,2.034,1.083,3.25a9.03,9.03,0,0,0,7.907,8.575,4.526,4.526,0,0,0,3.364-.821c.848-.719,1.282-1.891,2.254-2.431,1.581-.879,3.5.4,4.655,1.794s2.3,3.1,4.086,3.357c2.369.337,4.173-2.077,5.058-4.3a25.065,25.065,0,0,0-.5-19.476C765.686,224.6,748.792,222.895,739.877,229.212Z" transform="translate(-439.181 -142.673)" fill="#2f2e41"/>
  </g>
</svg>
