<svg xmlns="http://www.w3.org/2000/svg" width="601.295" height="302.01" viewBox="0 0 601.295 302.01">
  <g id="services-img" transform="translate(-618.793 -3668.203)">
    <g id="undraw_Working_oh83" transform="translate(606.99 3697.963) rotate(-7)">
      <path id="Path_337" data-name="Path 337" d="M10.8,0H87.7A10.8,10.8,0,0,1,98.5,10.8V132.24a10.8,10.8,0,0,1-10.8,10.8H10.8A10.8,10.8,0,0,1,0,132.24V10.8A10.8,10.8,0,0,1,10.8,0Z" transform="translate(31.822 22.459) rotate(-12.753)" fill="#41404a"/>
      <ellipse id="Ellipse_57" data-name="Ellipse 57" cx="2.842" cy="2.842" rx="2.842" ry="2.842" transform="translate(38.644 38.364)" fill="#fff"/>
      <ellipse id="Ellipse_58" data-name="Ellipse 58" cx="2.842" cy="2.842" rx="2.842" ry="2.842" transform="translate(41.486 48.783)" fill="#fff"/>
      <ellipse id="Ellipse_59" data-name="Ellipse 59" cx="2.842" cy="2.842" rx="2.842" ry="2.842" transform="translate(59.957 125.037)" fill="#fff"/>
      <ellipse id="Ellipse_60" data-name="Ellipse 60" cx="2.842" cy="2.842" rx="2.842" ry="2.842" transform="translate(62.799 135.457)" fill="#fff"/>
      <rect id="Rectangle_531" data-name="Rectangle 531" width="59.144" height="9.857" transform="translate(63.649 68.035) rotate(-12.753)" fill="#f5f5f5"/>
      <rect id="Rectangle_532" data-name="Rectangle 532" width="98.501" height="143.039" transform="translate(101.817 72.441) rotate(-12.753)" fill="#94474a"/>
      <rect id="Rectangle_533" data-name="Rectangle 533" width="98.501" height="143.039" transform="translate(203.129 49.512) rotate(-12.753)" fill="#4b4a57"/>
      <rect id="Rectangle_534" data-name="Rectangle 534" width="59.144" height="9.857" transform="translate(122.378 83.664) rotate(-12.753)" fill="#f5f5f5"/>
      <rect id="Rectangle_535" data-name="Rectangle 535" width="78.859" height="2.464" transform="translate(118.022 109.074) rotate(-12.753)" fill="#f5f5f5"/>
      <rect id="Rectangle_536" data-name="Rectangle 536" width="78.859" height="2.464" transform="translate(119.291 114.682) rotate(-12.753)" fill="#f5f5f5"/>
      <rect id="Rectangle_537" data-name="Rectangle 537" width="78.859" height="2.464" transform="translate(120.561 120.29) rotate(-12.753)" fill="#f5f5f5"/>
      <rect id="Rectangle_538" data-name="Rectangle 538" width="37.787" height="2.464" transform="translate(121.83 125.899) rotate(-12.753)" fill="#f5f5f5"/>
      <rect id="Rectangle_539" data-name="Rectangle 539" width="43.537" height="2.464" transform="translate(123.099 131.507) rotate(-12.753)" fill="#f5f5f5"/>
      <rect id="Rectangle_540" data-name="Rectangle 540" width="78.859" height="2.464" transform="translate(124.369 137.115) rotate(-12.753)" fill="#f5f5f5"/>
      <rect id="Rectangle_541" data-name="Rectangle 541" width="78.859" height="2.464" transform="translate(125.638 142.723) rotate(-12.753)" fill="#f5f5f5"/>
      <rect id="Rectangle_542" data-name="Rectangle 542" width="73.109" height="2.464" transform="translate(126.907 148.332) rotate(-12.753)" fill="#f5f5f5"/>
      <rect id="Rectangle_543" data-name="Rectangle 543" width="78.859" height="2.464" transform="translate(128.177 153.94) rotate(-12.753)" fill="#f5f5f5"/>
      <rect id="Rectangle_544" data-name="Rectangle 544" width="41.073" height="2.464" transform="translate(129.446 159.549) rotate(-12.753)" fill="#f5f5f5"/>
      <rect id="Rectangle_545" data-name="Rectangle 545" width="43.537" height="2.464" transform="translate(235.05 142.386) rotate(-12.753)" fill="#94474a" opacity="0.3"/>
      <rect id="Rectangle_546" data-name="Rectangle 546" width="78.859" height="2.464" transform="translate(236.319 147.994) rotate(-12.753)" fill="#94474a" opacity="0.3"/>
      <rect id="Rectangle_547" data-name="Rectangle 547" width="78.859" height="2.464" transform="translate(237.589 153.602) rotate(-12.753)" fill="#94474a" opacity="0.3"/>
      <rect id="Rectangle_548" data-name="Rectangle 548" width="73.109" height="2.464" transform="translate(238.858 159.211) rotate(-12.753)" fill="#94474a" opacity="0.3"/>
      <rect id="Rectangle_549" data-name="Rectangle 549" width="78.859" height="2.464" transform="translate(240.127 164.819) rotate(-12.753)" fill="#94474a" opacity="0.3"/>
      <rect id="Rectangle_550" data-name="Rectangle 550" width="47.644" height="32.858" transform="translate(160.464 162.635) rotate(-12.753)" fill="#f5f5f5"/>
      <rect id="Rectangle_551" data-name="Rectangle 551" width="47.644" height="32.858" transform="translate(215.467 55.858) rotate(-12.753)" fill="#94474a" opacity="0.3"/>
      <rect id="Rectangle_552" data-name="Rectangle 552" width="47.644" height="32.858" transform="translate(260.949 89.359) rotate(-12.753)" fill="#94474a" opacity="0.3"/>
      <g id="Group_351" data-name="Group 351" transform="translate(84.586 241.684)" opacity="0.5">
        <rect id="Rectangle_553" data-name="Rectangle 553" width="1.421" height="8.052" transform="translate(3.315 0)" fill="#47e6b1"/>
        <rect id="Rectangle_554" data-name="Rectangle 554" width="1.421" height="8.052" transform="translate(8.052 3.316) rotate(90)" fill="#47e6b1"/>
      </g>
      <g id="Group_352" data-name="Group 352" transform="translate(239.461 0)" opacity="0.5">
        <rect id="Rectangle_555" data-name="Rectangle 555" width="1.421" height="8.052" transform="translate(3.315 0)" fill="#47e6b1"/>
        <rect id="Rectangle_556" data-name="Rectangle 556" width="1.421" height="8.052" transform="translate(8.052 3.316) rotate(90)" fill="#47e6b1"/>
      </g>
      <g id="Group_353" data-name="Group 353" transform="translate(416.123 59.203)" opacity="0.5">
        <rect id="Rectangle_557" data-name="Rectangle 557" width="1.421" height="8.052" transform="translate(3.315 0)" fill="#47e6b1"/>
        <rect id="Rectangle_558" data-name="Rectangle 558" width="1.421" height="8.052" transform="translate(8.052 3.316) rotate(90)" fill="#47e6b1"/>
      </g>
      <path id="Path_333" data-name="Path 333" d="M5.819,3.222a1.74,1.74,0,0,1-.97-2.1A.838.838,0,0,0,4.887.926h0A.873.873,0,0,0,3.319.347h0a.839.839,0,0,0-.1.171,1.74,1.74,0,0,1-2.1.97.838.838,0,0,0-.193-.038h0A.873.873,0,0,0,.347,3.018h0a.835.835,0,0,0,.171.1,1.74,1.74,0,0,1,.97,2.1.841.841,0,0,0-.038.193h0a.873.873,0,0,0,1.568.578h0a.836.836,0,0,0,.1-.171,1.74,1.74,0,0,1,2.1-.97.839.839,0,0,0,.193.038h0A.873.873,0,0,0,5.99,3.319h0A.845.845,0,0,0,5.819,3.222Z" transform="translate(164.821 237.66)" fill="#4d8af0" opacity="0.5"/>
      <path id="Path_334" data-name="Path 334" d="M5.818,3.222a1.74,1.74,0,0,1-.97-2.1A.838.838,0,0,0,4.887.926h0A.873.873,0,0,0,3.319.347h0a.84.84,0,0,0-.1.171,1.74,1.74,0,0,1-2.1.97.845.845,0,0,0-.193-.038h0A.873.873,0,0,0,.347,3.018h0a.834.834,0,0,0,.171.1,1.74,1.74,0,0,1,.97,2.1.833.833,0,0,0-.038.193h0a.873.873,0,0,0,1.568.578h0a.839.839,0,0,0,.1-.171,1.74,1.74,0,0,1,2.1-.97.844.844,0,0,0,.193.038h0A.873.873,0,0,0,5.99,3.319h0a.842.842,0,0,0-.171-.1Z" transform="translate(234.064 296.697)" fill="#4d8af0" opacity="0.5"/>
      <path id="Path_335" data-name="Path 335" d="M5.819,3.222a1.74,1.74,0,0,1-.97-2.1A.836.836,0,0,0,4.887.926h0A.873.873,0,0,0,3.319.347h0a.837.837,0,0,0-.1.171,1.74,1.74,0,0,1-2.1.97.837.837,0,0,0-.193-.038h0A.873.873,0,0,0,.347,3.019h0a.834.834,0,0,0,.171.1,1.74,1.74,0,0,1,.97,2.1.837.837,0,0,0-.038.193h0a.873.873,0,0,0,1.568.578h0a.836.836,0,0,0,.1-.171,1.74,1.74,0,0,1,2.1-.97.836.836,0,0,0,.193.038h0A.873.873,0,0,0,5.99,3.319h0a.837.837,0,0,0-.171-.1Z" transform="translate(0 96.857)" fill="#4d8af0" opacity="0.5"/>
      <path id="Path_336" data-name="Path 336" d="M5.819,3.222a1.74,1.74,0,0,1-.97-2.1A.839.839,0,0,0,4.887.926h0A.873.873,0,0,0,3.319.347h0a.84.84,0,0,0-.1.171,1.74,1.74,0,0,1-2.1.97.837.837,0,0,0-.193-.038h0A.873.873,0,0,0,.347,3.018h0a.84.84,0,0,0,.171.1,1.74,1.74,0,0,1,.97,2.1.843.843,0,0,0-.038.193h0a.873.873,0,0,0,1.568.578h0a.837.837,0,0,0,.1-.171,1.741,1.741,0,0,1,2.1-.97.836.836,0,0,0,.193.038h0A.873.873,0,0,0,5.99,3.319h0A.843.843,0,0,0,5.819,3.222Z" transform="translate(409.78 168.818)" fill="#4d8af0" opacity="0.5"/>
      <ellipse id="Ellipse_61" data-name="Ellipse 61" cx="2.842" cy="2.842" rx="2.842" ry="2.842" transform="translate(48.117 212.793)" fill="#f55f44" opacity="0.5"/>
      <ellipse id="Ellipse_62" data-name="Ellipse 62" cx="2.842" cy="2.842" rx="2.842" ry="2.842" transform="translate(149.472 0)" fill="#4d8af0" opacity="0.5"/>
      <ellipse id="Ellipse_63" data-name="Ellipse 63" cx="2.842" cy="2.842" rx="2.842" ry="2.842" transform="translate(216.821 214.048)" fill="#47e6b1" opacity="0.5"/>
      <ellipse id="Ellipse_64" data-name="Ellipse 64" cx="2.842" cy="2.842" rx="2.842" ry="2.842" transform="translate(380.696 285.092)" fill="#f55f44" opacity="0.5"/>
      <rect id="Rectangle_559" data-name="Rectangle 559" width="98.501" height="143.039" rx="13.435" transform="translate(239.269 82.609) rotate(-12.753)" fill="#94474a"/>
      <ellipse id="Ellipse_65" data-name="Ellipse 65" cx="2.842" cy="2.842" rx="2.842" ry="2.842" transform="translate(246.092 98.514)" fill="#fff"/>
      <ellipse id="Ellipse_66" data-name="Ellipse 66" cx="2.842" cy="2.842" rx="2.842" ry="2.842" transform="translate(248.934 108.934)" fill="#fff"/>
      <ellipse id="Ellipse_67" data-name="Ellipse 67" cx="2.842" cy="2.842" rx="2.842" ry="2.842" transform="translate(267.405 185.187)" fill="#fff"/>
      <ellipse id="Ellipse_68" data-name="Ellipse 68" cx="2.842" cy="2.842" rx="2.842" ry="2.842" transform="translate(270.247 195.607)" fill="#fff"/>
      <rect id="Rectangle_560" data-name="Rectangle 560" width="59.144" height="9.857" transform="translate(271.096 128.184) rotate(-12.753)" fill="#f5f5f5"/>
    </g>
    <g id="undraw_contract_uy56" transform="translate(1001.584 3666.804) rotate(8)">
      <path id="Path_338" data-name="Path 338" d="M219.2,143.094a14.482,14.482,0,0,0-14.465,14.465V324.207A14.482,14.482,0,0,0,219.2,338.672H341.453a14.482,14.482,0,0,0,14.465-14.465V157.559a14.482,14.482,0,0,0-14.465-14.465Z" transform="translate(-204.739 -125.481)" fill="#3f3d56"/>
      <rect id="Rectangle_561" data-name="Rectangle 561" width="136.134" height="175.03" transform="translate(7.522 27.887)" fill="#fff"/>
      <rect id="Rectangle_562" data-name="Rectangle 562" width="100.541" height="6.605" transform="translate(25.319 59.261)" fill="#94474a"/>
      <rect id="Rectangle_563" data-name="Rectangle 563" width="100.541" height="6.605" transform="translate(25.319 76.874)" fill="#94474a"/>
      <rect id="Rectangle_564" data-name="Rectangle 564" width="100.541" height="6.605" transform="translate(25.319 94.487)" fill="#94474a"/>
      <rect id="Rectangle_565" data-name="Rectangle 565" width="100.541" height="6.605" transform="translate(25.319 112.1)" fill="#94474a"/>
      <rect id="Rectangle_566" data-name="Rectangle 566" width="100.541" height="6.605" transform="translate(25.319 129.713)" fill="#94474a"/>
      <rect id="Rectangle_567" data-name="Rectangle 567" width="100.541" height="6.605" transform="translate(25.319 147.326)" fill="#94474a"/>
      <rect id="Rectangle_568" data-name="Rectangle 568" width="100.541" height="6.605" transform="translate(25.319 164.939)" fill="#94474a"/>
      <rect id="Rectangle_569" data-name="Rectangle 569" width="101.352" height="130.309" transform="translate(27.579 35.034) rotate(-10.37)" fill="#e6e6e6"/>
      <rect id="Rectangle_570" data-name="Rectangle 570" width="74.853" height="4.917" transform="translate(44.816 55.625) rotate(-10.37)" fill="#94474a"/>
      <rect id="Rectangle_571" data-name="Rectangle 571" width="74.853" height="4.917" transform="translate(47.177 68.523) rotate(-10.37)" fill="#94474a"/>
      <rect id="Rectangle_572" data-name="Rectangle 572" width="74.853" height="4.917" transform="translate(49.537 81.422) rotate(-10.37)" fill="#94474a"/>
      <rect id="Rectangle_573" data-name="Rectangle 573" width="74.853" height="4.917" transform="translate(51.898 94.321) rotate(-10.37)" fill="#94474a"/>
      <rect id="Rectangle_574" data-name="Rectangle 574" width="74.853" height="4.917" transform="translate(54.258 107.219) rotate(-10.37)" fill="#94474a"/>
      <rect id="Rectangle_575" data-name="Rectangle 575" width="74.853" height="4.917" transform="translate(56.618 120.118) rotate(-10.37)" fill="#94474a"/>
      <rect id="Rectangle_576" data-name="Rectangle 576" width="74.853" height="4.917" transform="translate(58.979 133.016) rotate(-10.37)" fill="#94474a"/>
      <rect id="Rectangle_577" data-name="Rectangle 577" width="28.678" height="36.872" transform="matrix(0.966, -0.259, 0.259, 0.966, 170.837, 165.118)" fill="#e6e6e6"/>
      <rect id="Rectangle_578" data-name="Rectangle 578" width="21.18" height="1.391" transform="matrix(0.966, -0.259, 0.259, 0.966, 176.169, 170.532)" fill="#fff"/>
      <rect id="Rectangle_579" data-name="Rectangle 579" width="21.18" height="1.391" transform="matrix(0.966, -0.259, 0.259, 0.966, 177.129, 174.116)" fill="#fff"/>
      <rect id="Rectangle_580" data-name="Rectangle 580" width="21.18" height="1.391" transform="matrix(0.966, -0.259, 0.259, 0.966, 178.09, 177.7)" fill="#fff"/>
      <rect id="Rectangle_581" data-name="Rectangle 581" width="21.18" height="1.391" transform="matrix(0.966, -0.259, 0.259, 0.966, 179.05, 181.284)" fill="#fff"/>
      <rect id="Rectangle_582" data-name="Rectangle 582" width="21.18" height="1.391" transform="matrix(0.966, -0.259, 0.259, 0.966, 180.01, 184.868)" fill="#fff"/>
      <rect id="Rectangle_583" data-name="Rectangle 583" width="21.18" height="1.391" transform="matrix(0.966, -0.259, 0.259, 0.966, 180.97, 188.452)" fill="#fff"/>
      <rect id="Rectangle_584" data-name="Rectangle 584" width="21.18" height="1.391" transform="matrix(0.966, -0.259, 0.259, 0.966, 181.931, 192.035)" fill="#fff"/>
      <path id="Path_339" data-name="Path 339" d="M406.5,93.927h-12V91.471a6.718,6.718,0,0,0-6.718-6.718H374.8a6.718,6.718,0,0,0-6.718,6.718v2.456h-12a6.718,6.718,0,0,0-6.718,6.718v18.6h63.847v-18.6a6.718,6.718,0,0,0-6.718-6.718Z" transform="translate(-305.707 -84.754)" fill="#3f3d56"/>
      <path id="Path_340" data-name="Path 340" d="M438.994,697.757a21.134,21.134,0,0,1,6.377-3.386,6.708,6.708,0,0,1,6.316,1.159,3.87,3.87,0,0,1,.935,4.892,3.109,3.109,0,0,1-2.06,1.5,2.481,2.481,0,0,1-2.231-.871,2.276,2.276,0,0,1-.569-2.235,2.929,2.929,0,0,1,1.877-1.594,13.89,13.89,0,0,1,2.8-.578l3.892-.533,15.931-2.181L490,691.5a.554.554,0,0,0,.384-.677.565.565,0,0,0-.677-.384l-35.3,4.833c-1.277.175-2.572.3-3.835.557a6.45,6.45,0,0,0-2.754,1.144,3.287,3.287,0,0,0-.014,5.108,3.641,3.641,0,0,0,5.242-.392,4.753,4.753,0,0,0,.36-5.824,7.061,7.061,0,0,0-6.887-2.827c-3.039.373-5.615,2.081-8.083,3.77C437.857,697.2,438.407,698.159,438.994,697.757Z" transform="translate(-367.711 -507.568)" fill="#3f3d56"/>
      <path id="Path_341" data-name="Path 341" d="M850.821,579.591l.367,3.669s-2.2,8.073,2.569,8.073,1.1-8.073,1.1-8.073l.367-2.935Z" transform="matrix(0.996, -0.087, 0.087, 0.996, -702.842, -352.835)" fill="#a0616a"/>
      <path id="Path_342" data-name="Path 342" d="M949.4,539.1l-1.683,3.281s-6.231,5.585-2.225,8.174,5.307-6.182,5.307-6.182l1.9-2.266Z" transform="matrix(0.996, -0.087, 0.087, 0.996, -765.378, -318.988)" fill="#a0616a"/>
      <path id="Path_343" data-name="Path 343" d="M870.591,583.741l5.137,34.859,2.569,24.952s2.2,5.5,9.54.734l-1.1-14.311L886,617.132s-.734-12.476-1.468-14.678.367-9.54.367-9.54l2.936-12.109Z" transform="matrix(0.996, -0.087, 0.087, 0.996, -716.763, -352.468)" fill="#2f2e41"/>
      <path id="Path_344" data-name="Path 344" d="M878.827,786.211l-2.935,3.3s-4.4-1.468-5.5,1.468,8.44,3.669,8.44,3.669,9.907.734,9.907,0-.266-6.347-1.6-6.659S878.827,786.211,878.827,786.211Z" transform="matrix(0.996, -0.087, 0.087, 0.996, -729.057, -495.333)" fill="#2f2e41"/>
      <path id="Path_345" data-name="Path 345" d="M916.777,578.512l5.137,36.694,2.569,24.952s2.2,5.5,9.54.734l-1.1-14.311-.734-12.843s-.734-12.476-1.468-14.678.367-9.54.367-9.54l-.734-13.577Z" transform="matrix(0.996, -0.087, 0.087, 0.996, -748.587, -346.277)" fill="#2f2e41"/>
      <path id="Path_346" data-name="Path 346" d="M925.013,786.211l-2.936,3.3s-4.4-1.468-5.5,1.468,8.44,3.669,8.44,3.669,9.907.734,9.907,0-.266-6.347-1.6-6.659S925.013,786.211,925.013,786.211Z" transform="matrix(0.996, -0.087, 0.087, 0.996, -761.177, -492.523)" fill="#2f2e41"/>
      <ellipse id="Ellipse_69" data-name="Ellipse 69" cx="7.706" cy="7.706" rx="7.706" ry="7.706" transform="matrix(0.996, -0.087, 0.087, 0.996, 190.084, 78.654)" fill="#a0616a"/>
      <path id="Path_347" data-name="Path 347" d="M679.991,293.685l3.3,5.5-8.44,3.669-1.1-6.605Z" transform="matrix(0.996, -0.087, 0.087, 0.996, -498.598, -144.667)" fill="#a0616a"/>
      <path id="Path_348" data-name="Path 348" d="M867.965,394.754s-7.706-.734-10.641,4.036l-7.243,5.5a4.175,4.175,0,0,0-1.613,3.872l6.287,47.5,9.174-.367,15.045-2.936,4.4-1.1-2.2-19.448s-2.568-7.706.367-12.843l-1.468-17.98L869.8,396.956Z" transform="matrix(0.996, -0.087, 0.087, 0.996, -690.031, -224.401)" fill="#575a89"/>
      <path id="Path_349" data-name="Path 349" d="M849.218,429.189l-.55-.917s-.734,0-.734,1.468-1.284,33.208-1.284,33.208l-.367,12.109,6.972.734,2.569-22.75L854.722,438Z" transform="matrix(0.996, -0.087, 0.087, 0.996, -690.577, -247.869)" fill="#575a89"/>
      <path id="Path_350" data-name="Path 350" d="M936.224,413.079l5.137.734a34.1,34.1,0,0,1,5.137,6.972c2.2,4.036,8.807,11.742,7.339,17.613s-5.871,16.512-5.871,16.512l-6.972-2.936s5.5-12.843,5.137-13.944-4.77-7.706-4.77-7.706Z" transform="matrix(0.996, -0.087, 0.087, 0.996, -752.202, -231.832)" fill="#575a89"/>
      <path id="Path_351" data-name="Path 351" d="M854.457,338.667s-6.238-.367-2.2-4.4c0,0,3.3-1.468,4.77-.734,0,0,2.2-1.468,2.2-.734,0,0,7.706-2.2,8.807,5.5s-.734,11.375-.734,11.375l-5.137-.367s1.1-6.238-2.935-5.5c0,0-3.3,1.1-3.669,0S854.457,338.667,854.457,338.667Z" transform="matrix(0.996, -0.087, 0.087, 0.996, -687.959, -180.989)" fill="#2f2e41"/>
      <path id="Path_352" data-name="Path 352" d="M666.828,416.788l3.3-22.016-2.2-13.577.734,14.767-2.2,20.826Z" transform="matrix(0.996, -0.087, 0.087, 0.996, -498.852, -205.968)" opacity="0.2"/>
    </g>
  </g>
</svg>
