<svg xmlns="http://www.w3.org/2000/svg" width="730.931" height="316.285" viewBox="0 0 730.931 316.285">
  <g id="corpusheader" transform="translate(-231.5 -166.215)">
    <g id="corpusheader-2" data-name="corpusheader" transform="translate(-604.064 -117.916)">
      <g id="undraw_buy_house_560d" transform="translate(837.064 284.131)">
        <path id="Path_226" data-name="Path 226" d="M1044.185,481.281l1.781,13.06-12.466,1.187,1.781-16.028Z" transform="translate(-419.995 -194.862)" fill="#a0616a"/>
        <path id="Path_227" data-name="Path 227" d="M975.511,364.916s1.187,16.028,1.187,16.621-8.311,41.553-8.311,41.553-11.872,22.557,0,21.964,8.311-21.37,8.311-21.37l12.466-34.43-5.343-24.338Z" transform="translate(-410.089 -257.768)" fill="#a0616a"/>
        <path id="Path_228" data-name="Path 228" d="M984.281,481.281,982.5,494.34l12.466,1.187L993.185,479.5Z" transform="translate(-399.269 -194.862)" fill="#a0616a"/>
        <path id="Path_229" data-name="Path 229" d="M991.426,458.884l-2.968,4.155s-1.781,17.808,0,23.745,5.342,33.242,5.342,35.023.594,2.968,0,3.562-2.374.594-1.187,1.781S993.8,531.9,993.8,531.9v2.968l7.717,43.928s-4.749,5.343-1.187,5.343,16.621,0,16.028-5.936l-1.187-.594s-1.781-39.179-1.187-40.959,0-5.343,0-5.343-1.187-1.781,0-2.375,1.187-5.342,1.187-5.342l5.342-36.211s4.749,24.338,7.717,26.713,2.375,8.311,2.375,8.311l2.374,52.238s-2.374,5.936,0,7.123,12.466,5.343,13.06-.594,3.562-57.581,3.562-59.955-.594-3.562,0-5.343-.594-1.781,0-1.781-1.187-1.781-1.187-2.968V482.035s.593-5.936,1.187-7.124-.594-2.374,0-4.155-1.187-7.717-1.187-7.717l-26.713-7.123Z" transform="translate(-420.068 -294.749)" fill="#2f2e41"/>
        <path id="Path_230" data-name="Path 230" d="M1017.453,682.884s2.968-2.968-1.187-2.968a19.321,19.321,0,0,0-7.717,1.781l-2.968,10.685s-12.169,9.795,1.484,8.607,11.576-.3,11.576-.3,4.155-1.187,4.749-2.375-1.187-18.4-1.187-18.4S1020.421,684.665,1017.453,682.884Z" transform="translate(-425.318 -385.78)" fill="#2f2e41"/>
        <path id="Path_231" data-name="Path 231" d="M1066.671,682.884s-2.968-2.968,1.187-2.968a19.321,19.321,0,0,1,7.717,1.781l2.968,10.685s12.169,9.795-1.484,8.607-13.356-.3-13.356-.3-4.155-1.187-4.749-2.375,2.968-18.4,2.968-18.4S1063.7,684.665,1066.671,682.884Z" transform="translate(-449.011 -385.78)" fill="#2f2e41"/>
        <rect id="Rectangle_424" data-name="Rectangle 424" width="5.285" height="208.747" transform="translate(169.862 105.326)" fill="#3f3d56"/>
        <path id="Path_232" data-name="Path 232" d="M338.016,316.345c.336,72.993-51.018,132.4-51.018,132.4s-51.9-58.935-52.237-131.929,51.018-132.4,51.018-132.4S337.68,243.351,338.016,316.345Z" transform="translate(-114.098 -184.416)" fill="#94474a"/>
        <rect id="Rectangle_425" data-name="Rectangle 425" width="409.001" height="86.668" transform="translate(133.864 227.651)" fill="#e9e9e9"/>
        <path id="Path_233" data-name="Path 233" d="M203.5,335.7l44.521-93.2H603.6l33.242,93.2Z" transform="translate(-82.695 -98.548)" fill="#414141"/>
        <rect id="Rectangle_426" data-name="Rectangle 426" width="165.025" height="54.613" transform="translate(231.811 149.888)" fill="#f2f2f2"/>
        <path id="Path_234" data-name="Path 234" d="M390.619,177.5,364.5,232.113H560.393L544.959,177.5Z" transform="translate(-148.123 -72.133)" fill="#595959"/>
        <rect id="Rectangle_427" data-name="Rectangle 427" width="130.299" height="69.453" transform="translate(246.354 244.866)" fill="#ccc"/>
        <rect id="Rectangle_428" data-name="Rectangle 428" width="69.453" height="67.079" transform="translate(149.892 247.241)" fill="#ccc"/>
        <path id="Path_320" data-name="Path 320" d="M0,0H35.914V62.923H0Z" transform="translate(399.21 251.396)" fill="#4d4d4d"/>
        <path id="Path_367" data-name="Path 367" stroke="#414141" d="M0,0H727.931L0,1Z" fill="none" transform="translate(0 313.785)" stroke-linecap="round" stroke-linejoin="round" stroke-width="3" opacity="0.15"/>
        <rect id="Rectangle_431" data-name="Rectangle 431" width="3.487" height="137.75" transform="translate(106.798 176.339)" fill="#3f3d56"/>
        <path id="Path_235" data-name="Path 235" d="M224.85,451.447c.222,48.168-33.667,87.372-33.667,87.372s-34.249-38.891-34.471-87.058,33.667-87.373,33.667-87.373S224.628,403.279,224.85,451.447Z" transform="translate(-82.38 -257.554)" fill="#7b3b3e"/>
        <rect id="Rectangle_432" data-name="Rectangle 432" width="3.487" height="137.75" transform="translate(61.463 176.339)" fill="#3f3d56"/>
        <path id="Path_237" data-name="Path 237" d="M155.776,460.771C156.022,514.1,118.5,557.5,118.5,557.5s-37.917-43.056-38.162-96.382,37.272-96.731,37.272-96.731S155.53,407.445,155.776,460.771Z" transform="translate(-58.642 -276.236)" fill="#a74f53"/>
        <rect id="Rectangle_433" data-name="Rectangle 433" width="17.512" height="16.324" transform="translate(474.006 254.958)" fill="#414141"/>
        <rect id="Rectangle_434" data-name="Rectangle 434" width="17.512" height="16.324" transform="translate(497.453 254.958)" fill="#414141"/>
        <rect id="Rectangle_435" data-name="Rectangle 435" width="17.512" height="16.918" transform="translate(474.006 277.218)" fill="#414141"/>
        <rect id="Rectangle_436" data-name="Rectangle 436" width="17.512" height="16.918" transform="translate(497.453 277.218)" fill="#414141"/>
        <g id="Group_299" data-name="Group 299" transform="translate(246.948 164.831)">
          <rect id="Rectangle_437" data-name="Rectangle 437" width="13.705" height="12.776" fill="#414141"/>
          <rect id="Rectangle_438" data-name="Rectangle 438" width="13.705" height="12.776" transform="translate(18.35)" fill="#414141"/>
          <rect id="Rectangle_439" data-name="Rectangle 439" width="13.705" height="13.24" transform="translate(0 17.421)" fill="#414141"/>
          <rect id="Rectangle_440" data-name="Rectangle 440" width="13.705" height="13.24" transform="translate(18.35 17.421)" fill="#414141"/>
          <rect id="Rectangle_441" data-name="Rectangle 441" width="13.705" height="12.776" transform="translate(102.695)" fill="#414141"/>
          <rect id="Rectangle_442" data-name="Rectangle 442" width="13.705" height="12.776" transform="translate(121.046)" fill="#414141"/>
          <rect id="Rectangle_443" data-name="Rectangle 443" width="13.705" height="13.24" transform="translate(102.695 17.421)" fill="#414141"/>
          <rect id="Rectangle_444" data-name="Rectangle 444" width="13.705" height="13.24" transform="translate(121.046 17.421)" fill="#414141"/>
          <rect id="Rectangle_445" data-name="Rectangle 445" width="13.705" height="12.776" transform="translate(51.645)" fill="#414141"/>
          <rect id="Rectangle_446" data-name="Rectangle 446" width="13.705" height="12.776" transform="translate(69.995)" fill="#414141"/>
          <rect id="Rectangle_447" data-name="Rectangle 447" width="13.705" height="13.24" transform="translate(51.645 17.421)" fill="#414141"/>
          <rect id="Rectangle_448" data-name="Rectangle 448" width="13.705" height="13.24" transform="translate(69.995 17.421)" fill="#414141"/>
        </g>
        <rect id="Rectangle_449" data-name="Rectangle 449" width="8.629" height="8.044" transform="translate(407.224 257.771)" fill="#f2f2f2"/>
        <rect id="Rectangle_450" data-name="Rectangle 450" width="8.629" height="8.044" transform="translate(418.778 257.771)" fill="#f2f2f2"/>
        <rect id="Rectangle_451" data-name="Rectangle 451" width="8.629" height="8.336" transform="translate(407.224 268.74)" fill="#f2f2f2"/>
        <rect id="Rectangle_452" data-name="Rectangle 452" width="8.629" height="8.336" transform="translate(418.778 268.74)" fill="#f2f2f2"/>
        <ellipse id="Ellipse_4" data-name="Ellipse 4" cx="3.5" cy="1.5" rx="3.5" ry="1.5" transform="translate(427 285.785)" fill="#f2f2f2"/>
        <rect id="Rectangle_453" data-name="Rectangle 453" width="130" height="1" transform="translate(246 251.785)" fill="#f2f2f2"/>
        <rect id="Rectangle_454" data-name="Rectangle 454" width="130" height="1" transform="translate(246 257.785)" fill="#f2f2f2"/>
        <rect id="Rectangle_455" data-name="Rectangle 455" width="130" height="1" transform="translate(246 262.785)" fill="#f2f2f2"/>
        <rect id="Rectangle_456" data-name="Rectangle 456" width="130" transform="translate(246 268.785)" fill="#f2f2f2"/>
        <rect id="Rectangle_457" data-name="Rectangle 457" width="130" height="3" transform="translate(246 272.785)" fill="#f2f2f2"/>
        <rect id="Rectangle_458" data-name="Rectangle 458" width="130" height="1" transform="translate(246 278.785)" fill="#f2f2f2"/>
        <rect id="Rectangle_459" data-name="Rectangle 459" width="130" transform="translate(246 285.785)" fill="#f2f2f2"/>
        <rect id="Rectangle_460" data-name="Rectangle 460" width="130" height="1" transform="translate(246 288.785)" fill="#f2f2f2"/>
        <rect id="Rectangle_461" data-name="Rectangle 461" width="130" height="2" transform="translate(246 294.785)" fill="#f2f2f2"/>
        <rect id="Rectangle_462" data-name="Rectangle 462" width="130" height="3" transform="translate(246 299.785)" fill="#f2f2f2"/>
        <rect id="Rectangle_463" data-name="Rectangle 463" width="130" transform="translate(246 305.785)" fill="#f2f2f2"/>
        <rect id="Rectangle_464" data-name="Rectangle 464" width="69.453" height="1.187" transform="translate(149.892 252.286)" fill="#f2f2f2"/>
        <rect id="Rectangle_465" data-name="Rectangle 465" width="69.453" height="1.187" transform="translate(149.892 257.629)" fill="#f2f2f2"/>
        <rect id="Rectangle_466" data-name="Rectangle 466" width="69.453" height="1.187" transform="translate(149.892 262.971)" fill="#f2f2f2"/>
        <rect id="Rectangle_467" data-name="Rectangle 467" width="69.453" height="1.187" transform="translate(149.892 268.314)" fill="#f2f2f2"/>
        <rect id="Rectangle_468" data-name="Rectangle 468" width="69.453" height="1.187" transform="translate(149.892 273.657)" fill="#f2f2f2"/>
        <rect id="Rectangle_469" data-name="Rectangle 469" width="69.453" height="1.187" transform="translate(149.892 278.999)" fill="#f2f2f2"/>
        <rect id="Rectangle_470" data-name="Rectangle 470" width="69.453" height="1.187" transform="translate(149.892 284.342)" fill="#f2f2f2"/>
        <rect id="Rectangle_471" data-name="Rectangle 471" width="69.453" height="1.187" transform="translate(149.892 289.684)" fill="#f2f2f2"/>
        <rect id="Rectangle_472" data-name="Rectangle 472" width="69.453" height="1.187" transform="translate(149.892 295.027)" fill="#f2f2f2"/>
        <rect id="Rectangle_473" data-name="Rectangle 473" width="69.453" height="1.187" transform="translate(149.892 300.369)" fill="#f2f2f2"/>
        <rect id="Rectangle_474" data-name="Rectangle 474" width="69.453" height="1.187" transform="translate(149.892 305.712)" fill="#f2f2f2"/>
        <path id="Path_245" data-name="Path 245" d="M48.149,0A48.149,48.149,0,1,1,0,48.149,48.149,48.149,0,0,1,48.149,0Z" transform="translate(472.121 95.299)" fill="#7a3a3d"/>
        <circle id="Ellipse_6" data-name="Ellipse 6" cx="15.434" cy="15.434" r="15.434" transform="translate(563.641 29.384)" fill="#a0616a"/>
        <path id="Path_239" data-name="Path 239" d="M998,274.852s2.374,11.872,2.374,13.653,10.092,7.123,10.092,7.123l11.279-14.247s-7.124-10.091-7.124-12.466Z" transform="translate(-424.267 -218.755)" fill="#a0616a"/>
        <path id="Path_240" data-name="Path 240" d="M997.151,296.408s-5.174-1.377-6.742-3.657c0,0-16.409,16.123-16.409,19.091l13.059,23.151s0,8.311,1.187,8.9,0,0,0,2.374-3.562,17.808-2.374,20.183,2.374.594,1.187,4.155-4.155,22.557-4.155,22.557,10.685-3.562,26.119,2.375,33.836-2.375,33.836-2.375-4.749-10.685-3.562-14.247-2.968-10.091-2.968-10.091l-2.968-54.613s4.155-24.338,1.187-25.525l-5.936-2.375L1009.6,283.98S1004.868,295.814,997.151,296.408Z" transform="translate(-414.514 -224.877)" fill="#d0cde1"/>
        <path id="Path_241" data-name="Path 241" d="M979.033,323.916l-5.936,4.155s-2.968,8.9,0,13.06a30.436,30.436,0,0,1,4.155,10.091l11.872-1.187Z" transform="translate(-413.611 -241.107)" fill="#d0cde1"/>
        <path id="Path_242" data-name="Path 242" d="M1018.06,332.916s-3.437,8.839-2.719,17.585a9.265,9.265,0,0,0,1.532,4.379h0l-42.113,19.994s-19.029,1.97-14.28,10.281S982.443,381,982.443,381s45.115-6.53,48.676-13.06,5.936-33.836,5.936-33.836Z" transform="translate(-408.71 -244.764)" fill="#a0616a"/>
        <path id="Path_243" data-name="Path 243" d="M983.6,225.927l-2.677-1.072s5.6-6.163,13.386-5.627l-2.191-2.412s5.354-2.144,10.222,3.483c2.559,2.958,5.519,6.435,7.365,10.352h2.867l-1.2,2.635,4.188,2.635-4.3-.473a14.582,14.582,0,0,1-.407,6.824l.115,2.083s-4.983-7.71-4.983-8.781v2.68s-2.677-2.411-2.677-4.019l-1.46,1.876-.73-2.947-9.005,2.947,1.46-2.412-5.6.8,2.191-2.947s-6.328,3.483-6.572,6.431-3.407,6.7-3.407,6.7l-1.46-2.68S976.538,229.946,983.6,225.927Z" transform="translate(-416.305 -197.42)" fill="#2f2e41"/>
        <path id="Path_244" data-name="Path 244" d="M1058.155,291.916h8.9s6.53,1.187,8.311,13.059,3.562,14.84,1.781,14.84S1054,319.222,1054,318.629,1058.155,291.916,1058.155,291.916Z" transform="translate(-447.025 -228.102)" fill="#d0cde1"/>
      </g>
    </g>
    <path id="tools-solid" d="M56.677,44.79,43.422,31.536a8.4,8.4,0,0,0-9.667-1.573L21.689,17.9V10.867L7.2,0-.044,7.244,10.822,21.733h7.029L29.918,33.8a8.423,8.423,0,0,0,1.573,9.667L44.746,56.721a4.208,4.208,0,0,0,5.965,0l5.965-5.965a4.229,4.229,0,0,0,0-5.965ZM37.5,25.468a11.909,11.909,0,0,1,8.478,3.509l2.2,2.2a16.022,16.022,0,0,0,4.958-3.339,16.279,16.279,0,0,0,4.29-15.473,1.355,1.355,0,0,0-2.275-.623L46.727,20.16l-7.686-1.279-1.279-7.686,8.422-8.422A1.367,1.367,0,0,0,45.538.487a16.306,16.306,0,0,0-15.462,4.29A16.041,16.041,0,0,0,25.413,16.5L34.706,25.8a12.331,12.331,0,0,1,2.8-.328ZM25.741,34.75l-6.418-6.418L2.072,45.594A7.244,7.244,0,0,0,12.316,55.838L26.307,41.847a12.155,12.155,0,0,1-.566-7.1ZM7.2,53.427A2.717,2.717,0,1,1,9.917,50.71,2.725,2.725,0,0,1,7.2,53.427Z" transform="translate(719.816 284.519) rotate(-7)" fill="#fff" opacity="0.16"/>
  </g>
</svg>
