<svg xmlns="http://www.w3.org/2000/svg" xmlns:xlink="http://www.w3.org/1999/xlink" width="529.734" height="327.482" viewBox="0 0 529.734 327.482">
  <defs>
    <linearGradient id="linear-gradient" x1="0.5" y1="1" x2="0.5" gradientUnits="objectBoundingBox">
      <stop offset="0" stop-color="gray" stop-opacity="0.251"/>
      <stop offset="0.54" stop-color="gray" stop-opacity="0.122"/>
      <stop offset="1" stop-color="gray" stop-opacity="0.102"/>
    </linearGradient>
    <linearGradient id="linear-gradient-2" x1="0.5" y1="1" x2="0.5" y2="0" xlink:href="#linear-gradient"/>
    <linearGradient id="linear-gradient-3" x1="0.5" y1="1" x2="0.5" y2="0" xlink:href="#linear-gradient"/>
    <linearGradient id="linear-gradient-5" x1="0.5" y1="1" x2="0.5" y2="0" xlink:href="#linear-gradient"/>
    <linearGradient id="linear-gradient-6" x1="0.501" y1="1" x2="0.501" y2="0" xlink:href="#linear-gradient"/>
    <linearGradient id="linear-gradient-7" x1="0.5" y1="1" x2="0.5" y2="0" xlink:href="#linear-gradient"/>
    <linearGradient id="linear-gradient-12" x1="0.5" y1="1" x2="0.5" y2="0" xlink:href="#linear-gradient"/>
    <linearGradient id="linear-gradient-13" x1="0.5" y1="1" x2="0.5" y2="0" xlink:href="#linear-gradient"/>
    <linearGradient id="linear-gradient-17" x1="0.5" y1="1" x2="0.5" y2="0" xlink:href="#linear-gradient"/>
    <linearGradient id="linear-gradient-18" x1="0.501" y1="1" x2="0.501" y2="0" xlink:href="#linear-gradient"/>
    <linearGradient id="linear-gradient-19" x1="0.5" y1="1" x2="0.5" gradientUnits="objectBoundingBox">
      <stop offset="0" stop-color="#b3b3b3" stop-opacity="0.251"/>
      <stop offset="0.54" stop-color="#b3b3b3" stop-opacity="0.102"/>
      <stop offset="1" stop-color="#b3b3b3" stop-opacity="0.051"/>
    </linearGradient>
    <linearGradient id="linear-gradient-20" x1="0.5" y1="1.001" x2="0.5" gradientUnits="objectBoundingBox">
      <stop offset="0" stop-opacity="0.122"/>
      <stop offset="0.55" stop-opacity="0.09"/>
      <stop offset="1" stop-opacity="0.02"/>
    </linearGradient>
    <linearGradient id="linear-gradient-21" x1="0.5" y1="0.999" x2="0.5" y2="0" xlink:href="#linear-gradient-20"/>
    <linearGradient id="linear-gradient-22" x1="0.5" y1="1" x2="0.5" gradientUnits="objectBoundingBox">
      <stop offset="0.01" stop-color="gray" stop-opacity="0.251"/>
      <stop offset="0.54" stop-color="gray" stop-opacity="0.122"/>
      <stop offset="1" stop-color="gray" stop-opacity="0.102"/>
    </linearGradient>
    <linearGradient id="linear-gradient-23" x1="0.5" y1="1" x2="0.5" y2="0" xlink:href="#linear-gradient-19"/>
    <linearGradient id="linear-gradient-27" x1="0.5" y1="1" x2="0.5" y2="0" xlink:href="#linear-gradient-19"/>
  </defs>
  <g id="footer" transform="translate(-184 -367)">
    <path id="Path_484" data-name="Path 484" d="M198.478,0C329.17,0,435.117,66.019,435.117,147.458S328.5,256.247,198.478,263.526-45.452,331.111-42.346,235.452s-51.777-68.574-51.777-120.614C-94.123,33.4,67.786,0,198.478,0Z" transform="translate(278.617 399.579)" fill="#727b76" opacity="0.12"/>
    <g id="footer-2" data-name="footer" transform="translate(325.01 430.013)">
      <circle id="Ellipse_95" data-name="Ellipse 95" cx="64.345" cy="64.345" r="64.345" transform="translate(0.427 18.673)" opacity="0.3" stroke="#ff9800" stroke-miterlimit="10" stroke-width="4" stroke-dasharray="12" fill="none"/>
      <ellipse id="Ellipse_96" data-name="Ellipse 96" cx="71.341" cy="71.341" rx="71.341" ry="71.341" transform="translate(-76.589 101.941)" fill="none" stroke="#ff9800" stroke-miterlimit="10" stroke-width="4" stroke-dasharray="12" opacity="0.3"/>
      <g id="_Group_" data-name="&lt;Group&gt;" transform="translate(252.088 55.494)">
        <path id="Path_449" data-name="Path 449" d="M899.082,445.81a15.91,15.91,0,0,1-4.32-10.886,16.161,16.161,0,0,1,7.927-13.813,9.38,9.38,0,0,1-1.655-5.3,9.832,9.832,0,0,1,10-9.659,9.952,9.952,0,0,1,9.592,6.954,15,15,0,0,1,12.756-6.954,14.654,14.654,0,0,1,14.9,14.393,13.929,13.929,0,0,1-.912,4.967c.3-.021.6-.046.912-.046a11.76,11.76,0,0,1,11.957,11.554,11.286,11.286,0,0,1-.06,1.167,14.348,14.348,0,0,1,8.98,13.18,14.6,14.6,0,0,1-14.849,14.347,15.434,15.434,0,0,1-2.57-.219c.042.477.071.962.071,1.45,0,8.892-7.46,16.1-16.663,16.1a16.97,16.97,0,0,1-9.489-2.867,12.65,12.65,0,0,1-8.057,2.867,12.241,12.241,0,0,1-12.448-12.021c0-.286.025-.569.046-.852h-.046a13.11,13.11,0,0,1-13.329-12.88A12.834,12.834,0,0,1,899.082,445.81Z" transform="translate(-891.82 -406.149)" fill="url(#linear-gradient)"/>
      </g>
      <path id="_Path_" data-name="&lt;Path&gt;" d="M903.461,448.743a15.238,15.238,0,0,1-4.133-10.419,15.468,15.468,0,0,1,7.587-13.223,8.977,8.977,0,0,1-1.584-5.088,9.413,9.413,0,0,1,9.57-9.245,9.546,9.546,0,0,1,9.192,6.654,14.361,14.361,0,0,1,12.187-6.65,14.025,14.025,0,0,1,14.258,13.788,13.336,13.336,0,0,1-.873,4.755c.29-.021.58-.042.873-.042a11.255,11.255,0,0,1,11.444,11.059,10.843,10.843,0,0,1-.06,1.117,13.75,13.75,0,0,1,8.595,12.615A13.979,13.979,0,0,1,956.305,467.8a14.781,14.781,0,0,1-2.476-.209c.044.456.068.919.068,1.386a15.685,15.685,0,0,1-15.948,15.408,16.263,16.263,0,0,1-9.083-2.744,12.109,12.109,0,0,1-7.683,2.751,11.719,11.719,0,0,1-11.915-11.511c0-.276.021-.544.042-.817h-.042a12.549,12.549,0,0,1-12.76-12.328,12.286,12.286,0,0,1,6.951-10.988Z" transform="translate(-642.764 -353.641)" fill="#009688"/>
      <line id="_Path_2" data-name="&lt;Path&gt;" y2="85.643" transform="translate(287.729 78.985)" fill="#795548"/>
      <rect id="Rectangle_681" data-name="Rectangle 681" width="4.663" height="85.64" transform="translate(285.318 78.985)" fill="url(#linear-gradient-2)"/>
      <rect id="Rectangle_682" data-name="Rectangle 682" width="2.581" height="85.64" transform="translate(286.439 78.985)" fill="#795548"/>
      <line id="_Path_3" data-name="&lt;Path&gt;" x1="15.294" y1="15.598" transform="translate(272.696 89.036)" fill="#795548"/>
      <rect id="Rectangle_683" data-name="Rectangle 683" width="2.581" height="21.846" transform="matrix(0.714, -0.7, 0.7, 0.714, 271.779, 89.94)" fill="#795548"/>
      <line id="_Path_4" data-name="&lt;Path&gt;" y1="11.123" x2="15.853" transform="translate(287.991 106.918)" fill="#795548"/>
      <rect id="Rectangle_684" data-name="Rectangle 684" width="19.367" height="2.581" transform="translate(287.248 116.978) rotate(-35.06)" fill="#795548"/>
      <g id="_Group_2" data-name="&lt;Group&gt;" transform="translate(222.482 56.11)">
        <path id="Path_450" data-name="Path 450" d="M875.738,448.438a16.878,16.878,0,0,0-3.482-25.243,9.98,9.98,0,0,0,1.6-5.434A9.627,9.627,0,0,0,854.939,415a14.315,14.315,0,0,0-12.314-7.106A14.552,14.552,0,0,0,828.239,422.6a14.978,14.978,0,0,0,.88,5.077c-.29-.021-.583-.046-.88-.046a11.7,11.7,0,0,0-11.547,11.809c0,.4.021.8.06,1.191a14.676,14.676,0,0,0-8.672,13.47,14.5,14.5,0,0,0,14.336,14.665,14.1,14.1,0,0,0,2.475-.223c-.042.488-.067.983-.067,1.481a16.275,16.275,0,0,0,16.09,16.454,15.764,15.764,0,0,0,9.16-2.931,11.808,11.808,0,0,0,7.778,2.931,12.159,12.159,0,0,0,12.021-12.293c0-.294-.025-.583-.042-.873h.042a13.017,13.017,0,0,0,12.869-13.163,13.194,13.194,0,0,0-7-11.713Z" transform="translate(-808.08 -407.89)" fill="url(#linear-gradient-3)"/>
      </g>
      <path id="_Path_5" data-name="&lt;Path&gt;" d="M878.106,452.769a15.842,15.842,0,0,0-3.27-23.688,9.368,9.368,0,0,0,1.5-5.1,9.029,9.029,0,0,0-17.741-2.6,13.435,13.435,0,0,0-11.561-6.671,13.659,13.659,0,0,0-13.5,13.81,14.064,14.064,0,0,0,.827,4.766c-.272-.021-.548-.042-.827-.042a10.953,10.953,0,0,0-10.836,11.084,10.6,10.6,0,0,0,.057,1.117,13.788,13.788,0,0,0-8.132,12.646,13.6,13.6,0,0,0,13.46,13.764,13.228,13.228,0,0,0,2.33-.209c-.039.46-.064.923-.064,1.389a15.273,15.273,0,0,0,15.1,15.443,14.8,14.8,0,0,0,8.6-2.751,11.084,11.084,0,0,0,7.3,2.751,11.413,11.413,0,0,0,11.282-11.54c0-.276-.021-.548-.039-.82h.039a12.222,12.222,0,0,0,12.081-12.356A12.374,12.374,0,0,0,878.106,452.769Z" transform="translate(-589.825 -356.189)" fill="#00897b"/>
      <rect id="Rectangle_685" data-name="Rectangle 685" width="3.507" height="87.248" transform="translate(260.952 78.953)" fill="url(#linear-gradient-3)"/>
      <rect id="Rectangle_686" data-name="Rectangle 686" width="1.764" height="86.021" transform="translate(261.949 80.18)" fill="#795548"/>
      <rect id="Rectangle_687" data-name="Rectangle 687" width="21.312" height="1.764" transform="translate(261.782 105.512) rotate(-47.2)" fill="#795548"/>
      <rect id="Rectangle_688" data-name="Rectangle 688" width="1.764" height="18.699" transform="matrix(0.596, -0.803, 0.803, 0.596, 246.9, 109.135)" fill="#795548"/>
      <g id="_Group_3" data-name="&lt;Group&gt;" transform="translate(217.614 95.127)">
        <path id="Path_451" data-name="Path 451" d="M799.26,545.292a10.85,10.85,0,0,1-2.942-7.424,11.013,11.013,0,0,1,5.4-9.411,6.391,6.391,0,0,1-1.128-3.624,6.7,6.7,0,0,1,6.813-6.583,6.785,6.785,0,0,1,6.537,4.738,10.225,10.225,0,0,1,8.694-4.738,9.986,9.986,0,0,1,10.154,9.807,9.5,9.5,0,0,1-.622,3.387c.2,0,.41-.032.622-.032a8.006,8.006,0,0,1,8.132,7.874,7.694,7.694,0,0,1-.042.8,9.776,9.776,0,0,1,6.12,8.984,9.951,9.951,0,0,1-10.118,9.776,10.527,10.527,0,0,1-1.768-.149c.032.325.05.654.05.986a11.159,11.159,0,0,1-11.356,10.96,11.576,11.576,0,0,1-6.438-1.92,8.619,8.619,0,0,1-5.491,1.937,8.345,8.345,0,0,1-8.485-8.2,3.5,3.5,0,0,1,.032-.58h-.032a8.932,8.932,0,0,1-9.083-8.775,8.747,8.747,0,0,1,4.95-7.813Z" transform="translate(-794.31 -518.249)" fill="url(#linear-gradient-5)"/>
      </g>
      <path id="_Path_6" data-name="&lt;Path&gt;" d="M802.212,547.325a10.384,10.384,0,0,1-2.828-7.1,10.539,10.539,0,0,1,5.172-9.008,6.117,6.117,0,0,1-1.078-3.468,6.414,6.414,0,0,1,6.519-6.3,6.491,6.491,0,0,1,6.258,4.536,9.787,9.787,0,0,1,8.319-4.536,9.559,9.559,0,0,1,9.719,9.39,9.085,9.085,0,0,1-.594,3.242c.2,0,.392-.028.594-.028a7.671,7.671,0,0,1,7.8,7.534,7.388,7.388,0,0,1-.039.76,9.358,9.358,0,0,1,5.858,8.6,9.527,9.527,0,0,1-9.687,9.358,10.064,10.064,0,0,1-1.676-.141c.028.311.046.626.046.944a10.689,10.689,0,0,1-10.868,10.5,11.08,11.08,0,0,1-6.187-1.87,8.252,8.252,0,0,1-5.254,1.87,8,8,0,0,1-8.132-7.845,3.623,3.623,0,0,1,.028-.555h-.028a8.551,8.551,0,0,1-8.694-8.4A8.372,8.372,0,0,1,802.212,547.325Z" transform="translate(-578.733 -425.19)" fill="#009688"/>
      <line id="_Path_7" data-name="&lt;Path&gt;" y2="58.36" transform="translate(241.902 111.15)" fill="#795548"/>
      <rect id="Rectangle_689" data-name="Rectangle 689" width="3.178" height="58.36" transform="translate(240.258 111.15)" fill="url(#linear-gradient-6)"/>
      <rect id="Rectangle_690" data-name="Rectangle 690" width="1.757" height="58.36" transform="translate(241.022 111.15)" fill="#795548"/>
      <line id="_Path_8" data-name="&lt;Path&gt;" x1="10.419" y1="10.631" transform="translate(231.66 117.998)" fill="#795548"/>
      <rect id="Rectangle_691" data-name="Rectangle 691" width="1.757" height="14.884" transform="matrix(0.714, -0.7, 0.7, 0.714, 231.031, 118.613)" fill="#795548"/>
      <line id="_Path_9" data-name="&lt;Path&gt;" y1="7.58" x2="10.804" transform="translate(242.079 130.185)" fill="#795548"/>
      <rect id="Rectangle_692" data-name="Rectangle 692" width="13.198" height="1.757" transform="translate(241.576 137.038) rotate(-35.06)" fill="#795548"/>
      <g id="_Group_4" data-name="&lt;Group&gt;" transform="translate(207.046 96.687)">
        <path id="Path_452" data-name="Path 452" d="M809.836,549.876a11.313,11.313,0,0,0-2.337-16.942,6.716,6.716,0,0,0,1.061-3.649,6.463,6.463,0,0,0-12.7-1.856,9.61,9.61,0,0,0-8.259-4.769,9.766,9.766,0,0,0-9.655,9.875,10.055,10.055,0,0,0,.59,3.408c-.194,0-.392-.032-.59-.032a7.838,7.838,0,0,0-7.75,7.927,5.46,5.46,0,0,0,.039.8,9.85,9.85,0,0,0-5.819,9.044,9.737,9.737,0,0,0,9.623,9.843,9.469,9.469,0,0,0,1.665-.148c-.028.329-.046.658-.046.993a10.925,10.925,0,0,0,10.8,11.045,10.581,10.581,0,0,0,6.148-1.966,7.927,7.927,0,0,0,5.222,1.966,8.16,8.16,0,0,0,8.068-8.252,4.049,4.049,0,0,0-.028-.587h.028a8.74,8.74,0,0,0,8.641-8.839A8.856,8.856,0,0,0,809.836,549.876Z" transform="translate(-764.419 -522.66)" fill="url(#linear-gradient-7)"/>
      </g>
      <path id="_Path_10" data-name="&lt;Path&gt;" d="M811.407,552.781a10.635,10.635,0,0,0-2.2-15.91,6.289,6.289,0,0,0,1.008-3.422,6.067,6.067,0,0,0-11.918-1.743,9.019,9.019,0,0,0-7.76-4.476,9.167,9.167,0,0,0-9.061,9.27,9.438,9.438,0,0,0,.555,3.2c-.184,0-.354-.028-.555-.028a7.357,7.357,0,0,0-7.272,7.424,5.258,5.258,0,0,0,.035.75,9.245,9.245,0,0,0-5.462,8.485,9.138,9.138,0,0,0,9.033,9.238,8.878,8.878,0,0,0,1.563-.141q-.042.462-.042.933a10.255,10.255,0,0,0,10.136,10.366,9.931,9.931,0,0,0,5.773-1.846,7.424,7.424,0,0,0,4.9,1.846,7.661,7.661,0,0,0,7.573-7.743,3.631,3.631,0,0,0-.028-.548h.028a8.2,8.2,0,0,0,8.11-8.294A8.312,8.312,0,0,0,811.407,552.781Z" transform="translate(-560.192 -428.928)" fill="#00897b"/>
      <rect id="Rectangle_693" data-name="Rectangle 693" width="2.355" height="58.561" transform="translate(232.873 112.02)" fill="url(#linear-gradient-3)"/>
      <rect id="Rectangle_694" data-name="Rectangle 694" width="1.184" height="57.738" transform="translate(233.541 112.844)" fill="#795548"/>
      <rect id="Rectangle_695" data-name="Rectangle 695" width="14.304" height="1.184" transform="translate(233.427 129.843) rotate(-47.2)" fill="#795548"/>
      <rect id="Rectangle_696" data-name="Rectangle 696" width="1.184" height="12.551" transform="matrix(0.596, -0.803, 0.803, 0.596, 223.437, 132.278)" fill="#795548"/>
      <rect id="Rectangle_697" data-name="Rectangle 697" width="99.7" height="88.74" transform="translate(131.79 83.298)" fill="url(#linear-gradient-3)"/>
      <rect id="Rectangle_698" data-name="Rectangle 698" width="162.631" height="85.912" transform="translate(66.384 83.298)" fill="#fff"/>
      <path id="Path_453" data-name="Path 453" d="M556.373,432.508H396.57V390.79H550.539a5.834,5.834,0,0,1,5.833,5.834Z" transform="translate(-319.576 -340.726)" fill="url(#linear-gradient-3)"/>
      <path id="Path_454" data-name="Path 454" d="M250.26,146h152.6a5.834,5.834,0,0,1,5.834,5.834v33.159H250.26Z" transform="translate(-173.269 -94.284)" fill="#9c7576"/>
      <path id="Path_455" data-name="Path 455" d="M250.26,146h152.6a5.834,5.834,0,0,1,5.834,5.834v33.159H250.26Z" transform="translate(-173.269 -94.284)" fill="#fff" opacity="0.7"/>
      <path id="Path_456" data-name="Path 456" d="M148.413,13.32,93.26,52.161V180.548H203.567V52.161Z" transform="translate(-71.776 -8.513)" fill="url(#linear-gradient-3)"/>
      <path id="Path_457" data-name="Path 457" d="M206.91,51.507,154.585,13.32,102.26,51.507V83.676H206.91Z" transform="translate(-77.594 -8.513)" fill="#9c7576"/>
      <path id="Path_458" data-name="Path 458" d="M206.91,51.507,154.585,13.32,102.26,51.507V83.676H206.91Z" transform="translate(-77.594 -8.513)" fill="#fff" opacity="0.5"/>
      <rect id="Rectangle_699" data-name="Rectangle 699" width="104.65" height="94.043" transform="translate(24.666 75.166)" fill="#fff"/>
      <path id="Path_459" data-name="Path 459" d="M192.941,63.516,133.9,21.355,74.149,63.516,70.26,48.688,133.9,2.37l63.638,46.318Z" transform="translate(-56.908 -1.434)" fill="url(#linear-gradient-12)"/>
      <path id="Path_460" data-name="Path 460" d="M197.229,63.634l-58.5-42.578L80.23,63.634,77.73,50.3l61-44.391,61,44.391Z" transform="translate(-61.737 -3.723)" fill="#9c7576"/>
      <path id="Path_461" data-name="Path 461" d="M197.229,63.634l-58.5-42.578L80.23,63.634,77.73,50.3l61-44.391,61,44.391Z" transform="translate(-61.737 -3.723)" opacity="0.2"/>
      <rect id="Rectangle_700" data-name="Rectangle 700" width="59.396" height="73.538" transform="translate(47.293 95.672)" fill="#f2f2f2"/>
      <rect id="Rectangle_701" data-name="Rectangle 701" width="59.396" height="12.728" transform="translate(47.293 95.672)" fill="#9c7576"/>
      <rect id="Rectangle_702" data-name="Rectangle 702" width="59.396" height="12.728" transform="translate(47.293 156.482)" fill="#9c7576"/>
      <path id="Path_462" data-name="Path 462" d="M676.93,651.061a.53.53,0,1,0-.53-.53A.53.53,0,0,0,676.93,651.061Z" transform="translate(-500.473 -508.293)" fill="lime"/>
      <rect id="Rectangle_703" data-name="Rectangle 703" width="28.991" height="53.739" transform="translate(161.842 115.471)" fill="#f2f2f2"/>
      <rect id="Rectangle_704" data-name="Rectangle 704" width="27.223" height="19.799" transform="translate(198.257 104.157)" fill="#f2f2f2"/>
      <rect id="Rectangle_705" data-name="Rectangle 705" width="27.223" height="8.839" transform="translate(198.257 104.157)" fill="#9c7576" opacity="0.2"/>
      <g id="_Group_5" data-name="&lt;Group&gt;" transform="translate(5.832 110.174)">
        <path id="Path_463" data-name="Path 463" d="M199.43,583.344a9.044,9.044,0,0,1-2.475-6.183,9.192,9.192,0,0,1,4.5-7.845,5.328,5.328,0,0,1-.94-3.019,5.586,5.586,0,0,1,5.678-5.487,5.657,5.657,0,0,1,5.459,3.956,8.524,8.524,0,0,1,7.248-3.949,8.326,8.326,0,0,1,8.464,8.177,7.916,7.916,0,0,1-.52,2.828c.173,0,.354-.025.52-.025a6.68,6.68,0,0,1,6.792,6.562,6.413,6.413,0,0,1-.035.661,8.149,8.149,0,0,1,5.1,7.488,8.3,8.3,0,0,1-8.436,8.149,8.762,8.762,0,0,1-1.46-.124c.025.272.039.544.039.824A9.312,9.312,0,0,1,219.9,604.5a9.649,9.649,0,0,1-5.392-1.63,7.187,7.187,0,0,1-4.578,1.63,6.965,6.965,0,0,1-7.071-6.834,3.153,3.153,0,0,1,.025-.484h-.025a7.449,7.449,0,0,1-7.573-7.315,7.29,7.29,0,0,1,4.14-6.526Z" transform="translate(-195.29 -560.808)" fill="url(#linear-gradient-13)"/>
      </g>
      <path id="_Path_11" data-name="&lt;Path&gt;" d="M201.916,585.022a8.658,8.658,0,0,1-2.348-5.918,8.786,8.786,0,0,1,4.31-7.509,5.1,5.1,0,0,1-.9-2.892,5.346,5.346,0,0,1,5.438-5.254,5.413,5.413,0,0,1,5.215,3.779,8.157,8.157,0,0,1,6.937-3.779,7.967,7.967,0,0,1,8.1,7.828,7.577,7.577,0,0,1-.495,2.7c.163,0,.329-.025.495-.025a6.4,6.4,0,0,1,6.5,6.282,6.144,6.144,0,0,1-.032.633,7.8,7.8,0,0,1,4.879,7.17,7.941,7.941,0,0,1-8.075,7.8,8.393,8.393,0,0,1-1.413-.12c.024.258.038.523.038.788a8.912,8.912,0,0,1-9.061,8.754,9.235,9.235,0,0,1-5.141-1.563,6.876,6.876,0,0,1-4.38,1.559,6.656,6.656,0,0,1-6.767-6.541,2.885,2.885,0,0,1,.025-.463h-.025a7.129,7.129,0,0,1-7.248-7A6.979,6.979,0,0,1,201.916,585.022Z" transform="translate(-191.19 -452.341)" fill="#009688"/>
      <line id="_Path_12" data-name="&lt;Path&gt;" y2="48.652" transform="translate(26.083 123.524)" fill="#795548"/>
      <rect id="Rectangle_706" data-name="Rectangle 706" width="2.652" height="48.652" transform="translate(24.712 123.524)" fill="url(#linear-gradient-3)"/>
      <rect id="Rectangle_707" data-name="Rectangle 707" width="1.464" height="48.652" transform="translate(25.348 123.524)" fill="#795548"/>
      <line id="_Path_13" data-name="&lt;Path&gt;" x1="8.69" y1="8.863" transform="translate(17.542 129.231)" fill="#795548"/>
      <rect id="Rectangle_708" data-name="Rectangle 708" width="1.464" height="12.409" transform="matrix(0.714, -0.7, 0.7, 0.714, 17.019, 129.744)" fill="#795548"/>
      <line id="_Path_14" data-name="&lt;Path&gt;" y1="6.318" x2="9.005" transform="translate(26.232 139.392)" fill="#795548"/>
      <rect id="Rectangle_709" data-name="Rectangle 709" width="11.002" height="1.464" transform="translate(25.81 145.105) rotate(-35.06)" fill="#795548"/>
      <g id="_Group_6" data-name="&lt;Group&gt;" transform="translate(-11.491 110.174)">
        <path id="Path_464" data-name="Path 464" d="M150.43,583.344a9.044,9.044,0,0,1-2.475-6.183,9.192,9.192,0,0,1,4.5-7.845,5.328,5.328,0,0,1-.94-3.019,5.586,5.586,0,0,1,5.678-5.487,5.657,5.657,0,0,1,5.459,3.956,8.524,8.524,0,0,1,7.248-3.949,8.326,8.326,0,0,1,8.464,8.177,7.916,7.916,0,0,1-.52,2.828c.173,0,.354-.025.52-.025a6.68,6.68,0,0,1,6.792,6.562,6.423,6.423,0,0,1-.035.661,8.149,8.149,0,0,1,5.1,7.488,8.3,8.3,0,0,1-8.436,8.149,8.762,8.762,0,0,1-1.46-.124c.025.272.039.544.039.824A9.312,9.312,0,0,1,170.9,604.5a9.649,9.649,0,0,1-5.392-1.63,7.187,7.187,0,0,1-4.578,1.63,6.965,6.965,0,0,1-7.071-6.834,3.153,3.153,0,0,1,.025-.484h-.025a7.449,7.449,0,0,1-7.573-7.315A7.29,7.29,0,0,1,150.43,583.344Z" transform="translate(-146.29 -560.808)" fill="url(#linear-gradient-13)"/>
      </g>
      <path id="_Path_15" data-name="&lt;Path&gt;" d="M152.916,585.022a8.658,8.658,0,0,1-2.348-5.918,8.786,8.786,0,0,1,4.31-7.509,5.1,5.1,0,0,1-.9-2.892,5.346,5.346,0,0,1,5.438-5.254,5.413,5.413,0,0,1,5.215,3.779,8.156,8.156,0,0,1,6.937-3.779,7.967,7.967,0,0,1,8.1,7.828,7.576,7.576,0,0,1-.495,2.7c.163,0,.329-.025.495-.025a6.4,6.4,0,0,1,6.5,6.282,6.14,6.14,0,0,1-.032.633,7.8,7.8,0,0,1,4.879,7.17,7.941,7.941,0,0,1-8.075,7.8,8.393,8.393,0,0,1-1.413-.12c.024.258.038.523.038.788a8.912,8.912,0,0,1-9.061,8.754,9.235,9.235,0,0,1-5.141-1.563,6.876,6.876,0,0,1-4.38,1.559,6.656,6.656,0,0,1-6.767-6.541,2.885,2.885,0,0,1,.025-.463h-.025a7.129,7.129,0,0,1-7.248-7A6.979,6.979,0,0,1,152.916,585.022Z" transform="translate(-159.514 -452.341)" fill="#009688"/>
      <line id="_Path_16" data-name="&lt;Path&gt;" y2="48.652" transform="translate(8.76 123.524)" fill="#795548"/>
      <rect id="Rectangle_710" data-name="Rectangle 710" width="2.652" height="48.652" transform="translate(7.388 123.524)" fill="url(#linear-gradient-3)"/>
      <rect id="Rectangle_711" data-name="Rectangle 711" width="1.464" height="48.652" transform="translate(8.024 123.524)" fill="#795548"/>
      <line id="_Path_17" data-name="&lt;Path&gt;" x1="8.69" y1="8.863" transform="translate(0.218 129.231)" fill="#795548"/>
      <rect id="Rectangle_712" data-name="Rectangle 712" width="1.464" height="12.409" transform="matrix(0.714, -0.7, 0.7, 0.714, -0.301, 129.745)" fill="#795548"/>
      <line id="_Path_18" data-name="&lt;Path&gt;" y1="6.318" x2="9.005" transform="translate(8.908 139.392)" fill="#795548"/>
      <rect id="Rectangle_713" data-name="Rectangle 713" width="11.002" height="1.464" transform="translate(8.486 145.108) rotate(-35.06)" fill="#795548"/>
      <g id="_Group_7" data-name="&lt;Group&gt;" transform="translate(-5.807 110.387)">
        <path id="Path_465" data-name="Path 465" d="M200.234,584.118a9.443,9.443,0,0,0-1.948-14.142,5.586,5.586,0,0,0,.894-3.04,5.388,5.388,0,0,0-10.585-1.549,8.011,8.011,0,0,0-6.891-3.977,8.131,8.131,0,0,0-8.05,8.231,8.384,8.384,0,0,0,.492,2.829c-.163,0-.325-.025-.492-.025a6.534,6.534,0,0,0-6.466,6.64,4.654,4.654,0,0,0,.032.668,8.237,8.237,0,0,0,3.171,15.743,7.885,7.885,0,0,0,1.389-.124c-.025.272-.039.548-.039.827a9.094,9.094,0,0,0,9,9.192,8.839,8.839,0,0,0,5.126-1.64,6.608,6.608,0,0,0,4.352,1.64,6.8,6.8,0,0,0,6.717-6.876,3.2,3.2,0,0,0-.025-.488h.025a7.287,7.287,0,0,0,7.2-7.364,7.382,7.382,0,0,0-3.907-6.544Z" transform="translate(-162.369 -561.41)" fill="url(#linear-gradient-17)"/>
      </g>
      <path id="_Path_19" data-name="&lt;Path&gt;" d="M201.58,586.57a8.863,8.863,0,0,0-1.831-13.258,5.243,5.243,0,0,0,.838-2.853,5.056,5.056,0,0,0-9.935-1.453,7.52,7.52,0,0,0-6.47-3.733A7.644,7.644,0,0,0,176.644,573a7.866,7.866,0,0,0,.463,2.666c-.152,0-.308-.025-.463-.025a6.134,6.134,0,0,0-6.063,6.2,4.081,4.081,0,0,0,.032.626,7.707,7.707,0,0,0-4.554,7.071,7.619,7.619,0,0,0,7.531,7.7,7.4,7.4,0,0,0,1.3-.117c-.021.258-.035.516-.035.778a8.546,8.546,0,0,0,8.45,8.641A8.28,8.28,0,0,0,188.12,605a6.2,6.2,0,0,0,4.08,1.534,6.385,6.385,0,0,0,6.314-6.456,3.312,3.312,0,0,0-.021-.46h.021a6.838,6.838,0,0,0,6.76-6.915A6.93,6.93,0,0,0,201.58,586.57Z" transform="translate(-170.561 -453.518)" fill="#00897b"/>
      <rect id="Rectangle_714" data-name="Rectangle 714" width="1.962" height="48.821" transform="translate(15.725 123.188)" fill="url(#linear-gradient-18)"/>
      <rect id="Rectangle_715" data-name="Rectangle 715" width="0.986" height="48.135" transform="translate(16.283 123.874)" fill="#795548"/>
      <rect id="Rectangle_716" data-name="Rectangle 716" width="11.925" height="0.986" transform="translate(16.198 138.048) rotate(-47.2)" fill="#795548"/>
      <rect id="Rectangle_717" data-name="Rectangle 717" width="0.986" height="10.465" transform="matrix(0.596, -0.803, 0.803, 0.596, 7.861, 140.075)" fill="#795548"/>
      <path id="Path_466" data-name="Path 466" d="M641.066,271.874a54.088,54.088,0,1,1,8.849,82.39l-39.1,40.658a2.63,2.63,0,0,1-3.723.074l-9.74-9.365a2.63,2.63,0,0,1-.074-3.723l39.1-40.658A54.092,54.092,0,0,1,641.066,271.874Zm12.18,65.378a38.689,38.689,0,1,0-1.061-54.7,38.689,38.689,0,0,0,1.061,54.7Z" transform="translate(-694.352 -137.636)" fill="url(#linear-gradient-19)"/>
      <path id="Path_467" data-name="Path 467" d="M662.317,377.85c-4.352,0-4.359,6.76,0,6.76S666.672,377.85,662.317,377.85Z" transform="translate(-489.257 -332.36)" fill="url(#linear-gradient-20)"/>
      <path id="Path_468" data-name="Path 468" d="M702.1,316.574a32.469,32.469,0,0,0-28.033,14.5c-1.849,2.892,3.4,5.448,5.24,2.57,4.692-7.343,13.608-12.021,23.242-11.762a29.624,29.624,0,0,1,24.168,14.057c1.849,3.044,6.686.276,4.851-2.751C725.662,323.437,714.2,316.846,702.1,316.574Z" transform="translate(-712.905 -171.044)" fill="url(#linear-gradient-21)"/>
      <path id="Path_469" data-name="Path 469" d="M654.315,266.519a55.6,55.6,0,1,1,9.1,84.694l-40.2,41.795a2.7,2.7,0,0,1-3.827.076l-10.016-9.631a2.7,2.7,0,0,1-.076-3.827l40.2-41.795A55.605,55.605,0,0,1,654.315,266.519Zm12.521,67.206a39.771,39.771,0,1,0-1.09-56.234A39.771,39.771,0,0,0,666.836,333.725Z" transform="translate(-705.302 -129.372)" fill="#9c7576"/>
      <path id="Path_470" data-name="Path 470" d="M674.317,372c-4.352,0-4.359,6.76,0,6.76S678.672,372,674.317,372Z" transform="translate(-497.014 -328.579)" fill="#9c7576"/>
      <path id="Path_471" data-name="Path 471" d="M717.192,310.755c-12.982-.294-24.8,6.221-31.08,16.071-2.05,3.206,3.771,6.04,5.809,2.85,5.2-8.141,15.087-13.327,25.769-13.041a32.844,32.844,0,0,1,26.8,15.585c2.05,3.375,7.412.306,5.378-3.05C743.314,318.371,730.606,311.061,717.192,310.755Z" transform="translate(-728.566 -171.566)" fill="#9c7576"/>
    </g>
    <g id="undraw_files1_9ool" transform="translate(184 367)">
      <path id="Path_472" data-name="Path 472" d="M94.933,231.261H0V121.007L14.344,105.1h80.59Z" transform="translate(0 -85.401)" fill="url(#linear-gradient-22)"/>
      <path id="Path_473" data-name="Path 473" d="M100.74,234.27H8.95V128.23l13.868-15.3H100.74Z" transform="translate(-7.273 -91.764)" fill="#fafafa"/>
      <rect id="Rectangle_718" data-name="Rectangle 718" width="44.718" height="7.544" transform="translate(10.638 34.263)" fill="#e0e0e0"/>
      <rect id="Rectangle_719" data-name="Rectangle 719" width="32.77" height="7.544" transform="translate(10.728 54.907)" fill="#e0e0e0"/>
      <rect id="Rectangle_720" data-name="Rectangle 720" width="73.505" height="27.662" transform="translate(10.728 85.922)" fill="#9c7576"/>
      <rect id="Rectangle_721" data-name="Rectangle 721" width="16.657" height="7.544" transform="translate(67.577 34.368)" fill="#f5f5f5"/>
      <rect id="Rectangle_722" data-name="Rectangle 722" width="16.657" height="7.544" transform="translate(67.577 46.105)" fill="#f5f5f5"/>
      <path id="Path_474" data-name="Path 474" d="M24.248,112.93V129.7H8.95V128.23l13.83-15.3Z" transform="translate(-7.273 -91.764)" fill="url(#linear-gradient-23)"/>
      <path id="Path_475" data-name="Path 475" d="M8.75,128.23l13.868-15.3v15.3Z" transform="translate(-7.11 -91.764)" fill="#eee"/>
      <path id="Path_476" data-name="Path 476" d="M250.353,175.359H155.42V65.105L169.764,49.2h80.59Z" transform="translate(-126.29 -39.979)" fill="url(#linear-gradient-22)"/>
      <path id="Path_477" data-name="Path 477" d="M256.16,178.36H164.37V72.32l13.868-15.3H256.16Z" transform="translate(-133.563 -46.333)" fill="#fafafa"/>
      <rect id="Rectangle_723" data-name="Rectangle 723" width="44.718" height="7.544" transform="translate(39.768 23.786)" fill="#e0e0e0"/>
      <rect id="Rectangle_724" data-name="Rectangle 724" width="32.77" height="7.544" transform="translate(39.858 44.428)" fill="#e0e0e0"/>
      <rect id="Rectangle_725" data-name="Rectangle 725" width="73.505" height="27.662" transform="translate(39.858 75.445)" fill="#9c7576"/>
      <rect id="Rectangle_726" data-name="Rectangle 726" width="16.657" height="7.544" transform="translate(96.707 23.891)" fill="#f5f5f5"/>
      <rect id="Rectangle_727" data-name="Rectangle 727" width="16.657" height="7.544" transform="translate(96.707 35.626)" fill="#f5f5f5"/>
      <path id="Path_478" data-name="Path 478" d="M179.668,57.02V73.785h-15.3V72.32l13.83-15.3Z" transform="translate(-133.563 -46.333)" fill="url(#linear-gradient-19)"/>
      <path id="Path_479" data-name="Path 479" d="M164.17,72.32l13.868-15.3v15.3Z" transform="translate(-133.4 -46.333)" fill="#eee"/>
      <path id="Path_480" data-name="Path 480" d="M402.423,126.161H307.49V15.907L321.832,0h80.592Z" transform="translate(-249.858)" fill="url(#linear-gradient-22)"/>
      <path id="Path_481" data-name="Path 481" d="M408.22,129.17H316.43V23.128L330.3,7.83H408.22Z" transform="translate(-257.123 -6.362)" fill="#fff"/>
      <rect id="Rectangle_728" data-name="Rectangle 728" width="44.718" height="7.544" transform="translate(68.27 14.565)" fill="#e0e0e0"/>
      <rect id="Rectangle_729" data-name="Rectangle 729" width="32.77" height="7.544" transform="translate(68.36 35.208)" fill="#e0e0e0"/>
      <rect id="Rectangle_730" data-name="Rectangle 730" width="73.505" height="27.662" transform="translate(68.36 66.223)" fill="#9c7576"/>
      <rect id="Rectangle_731" data-name="Rectangle 731" width="16.657" height="7.544" transform="translate(125.208 14.67)" fill="#e0e0e0"/>
      <rect id="Rectangle_732" data-name="Rectangle 732" width="16.657" height="7.544" transform="translate(125.208 26.405)" fill="#e0e0e0"/>
      <rect id="Rectangle_733" data-name="Rectangle 733" width="16.657" height="7.544" transform="translate(125.208 38.141)" fill="#e0e0e0"/>
      <path id="Path_482" data-name="Path 482" d="M331.73,7.83V24.6h-15.3V23.128l13.832-15.3Z" transform="translate(-257.123 -6.362)" fill="url(#linear-gradient-27)"/>
      <path id="Path_483" data-name="Path 483" d="M316.23,23.128,330.1,7.83v15.3Z" transform="translate(-256.96 -6.362)" fill="#eee"/>
    </g>
  </g>
</svg>
