<svg xmlns="http://www.w3.org/2000/svg" width="32.374" height="28.327" viewBox="0 0 32.374 28.327">
  <path id="quote" d="M29.339,46.164H24.281V42.117a4.051,4.051,0,0,1,4.047-4.047h.506a1.514,1.514,0,0,0,1.518-1.518V33.518A1.514,1.514,0,0,0,28.833,32h-.506A10.114,10.114,0,0,0,18.21,42.117V57.292a3.036,3.036,0,0,0,3.035,3.035h8.094a3.036,3.036,0,0,0,3.035-3.035V49.2A3.036,3.036,0,0,0,29.339,46.164Zm-18.21,0H6.07V42.117a4.051,4.051,0,0,1,4.047-4.047h.506a1.514,1.514,0,0,0,1.518-1.518V33.518A1.514,1.514,0,0,0,10.623,32h-.506A10.114,10.114,0,0,0,0,42.117V57.292a3.036,3.036,0,0,0,3.035,3.035h8.094a3.036,3.036,0,0,0,3.035-3.035V49.2A3.036,3.036,0,0,0,11.129,46.164Z" transform="translate(0 -32)" fill="#94474a"/>
</svg>
